<?xml version="1.0" encoding="UTF-8" standalone="no"?>
<svg
   xmlns:dc="http://purl.org/dc/elements/1.1/"
   xmlns:cc="http://creativecommons.org/ns#"
   xmlns:rdf="http://www.w3.org/1999/02/22-rdf-syntax-ns#"
   xmlns:svg="http://www.w3.org/2000/svg"
   xmlns="http://www.w3.org/2000/svg"
   xmlns:sodipodi="http://sodipodi.sourceforge.net/DTD/sodipodi-0.dtd"
   xmlns:inkscape="http://www.inkscape.org/namespaces/inkscape"
   width="103.43427mm"
   height="78.529869mm"
   viewBox="0 0 103.43427 78.529869"
   version="1.1"
   id="svg8"
   inkscape:version="1.0.2-2 (e86c870879, 2021-01-15)"
   sodipodi:docname="bcgb_logo_vector.svg">
  <defs
     id="defs2" />
  <sodipodi:namedview
     id="base"
     pagecolor="#ffffff"
     bordercolor="#666666"
     borderopacity="1.0"
     inkscape:pageopacity="0.0"
     inkscape:pageshadow="2"
     inkscape:zoom="0.35"
     inkscape:cx="266.89498"
     inkscape:cy="142.68864"
     inkscape:document-units="mm"
     inkscape:current-layer="layer1"
     inkscape:document-rotation="0"
     showgrid="false"
     inkscape:window-width="3840"
     inkscape:window-height="2050"
     inkscape:window-x="-12"
     inkscape:window-y="-12"
     inkscape:window-maximized="1" />
  <metadata
     id="metadata5">
    <rdf:RDF>
      <cc:Work
         rdf:about="">
        <dc:format>image/svg+xml</dc:format>
        <dc:type
           rdf:resource="http://purl.org/dc/dcmitype/StillImage" />
        <dc:title></dc:title>
      </cc:Work>
    </rdf:RDF>
  </metadata>
  <g
     inkscape:label="Layer 1"
     inkscape:groupmode="layer"
     id="layer1"
     transform="translate(-35.21737,-110.41363)">
    <path
       d="m 60.884089,131.73834 c -0.81915,-1.4986 -1.243542,-2.85327 -2.962628,-2.91465 1.814336,-0.23812 2.684639,-1.10278 2.684639,-2.29129 0,-1.80375 -1.692275,-2.22285 -3.084689,-2.22285 h -4.33952 v 0.19085 h 0.127 c 1.201209,0 1.233664,0.86078 1.233664,3.14395 v 2.69099 c 0,2.32587 -0.03245,3.17751 -1.233664,3.17751 h -0.127 v 0.19223 h 4.187473 v -0.19223 h -0.0949 c -1.233664,0 -1.266825,-0.88195 -1.266825,-3.30387 v -1.15133 c 0.164041,0 0.590902,0 0.619477,0.001 1.04775,0.019 1.335617,0.2413 1.95192,1.34055 0.352425,0.63818 0.764822,1.91838 1.703564,3.30797 l 2.366081,0.005 0.0021,-0.20038 c -0.662164,-0.0262 -1.115836,-0.62727 -1.766711,-1.7738 z m -4.876447,-3.11679 v -3.87844 h 0.733425 c 1.488369,0 2.220383,0.51082 2.220383,2.03129 0,1.33809 -0.764117,1.84715 -2.317397,1.84715 h -0.636411"
       style="fill:#231f20;fill-opacity:1;fill-rule:nonzero;stroke:none;stroke-width:0.0352778"
       id="path36" />
    <path
       d="m 90.402419,118.04703 c -0.817739,-1.48836 -1.243895,-2.86138 -2.968273,-2.92064 1.820334,-0.23848 2.700162,-1.10349 2.700162,-2.29271 0,-1.80481 -1.702153,-2.22285 -3.100917,-2.22285 h -4.340226 v 0.1905 h 0.126295 c 1.201914,0 1.234722,0.85972 1.234722,3.14537 v 2.70863 c 0,2.31598 -0.03281,3.17605 -1.234722,3.17605 h -0.126295 v 0.1838 h 4.196998 v -0.1838 h -0.09666 c -1.242484,0 -1.274586,-0.89076 -1.274586,-3.30411 v -1.1677 h 0.510469 c 0.02893,0 0.05644,0 0.0822,10e-4 1.069623,0.0138 1.359253,0.23919 1.984023,1.34726 0.352777,0.63783 0.767644,1.91241 1.660172,3.30694 h 2.572103 v -0.1838 h -0.0314 c -0.793398,0 -1.225903,-0.60536 -1.894064,-1.78435 z m -4.883503,-3.12173 v -3.8802 h 0.733425 c 1.491544,0 2.22885,0.51047 2.22885,2.03941 0,1.32927 -0.769409,1.84079 -2.325511,1.84079 h -0.636764"
       style="fill:#231f20;fill-opacity:1;fill-rule:nonzero;stroke:none;stroke-width:0.0352778"
       id="path38" />
    <path
       d="m 99.17565,129.17643 c 1.08056,0.0314 1.45768,0.41314 1.45768,1.36039 v 1.1165 c 0,1.24174 -0.788813,1.85 -2.062341,1.85 -1.870781,0 -3.210631,-1.57342 -3.210631,-4.30456 0,-3.01702 1.307747,-4.67684 3.115028,-4.67684 1.562454,0 2.859264,1.03082 3.083274,2.80635 h 0.19086 v -2.98415 h -0.22472 c -0.0942,0.19015 -0.22225,0.31715 -0.38171,0.31715 -0.50976,0 -1.362426,-0.57397 -2.667704,-0.57397 -2.76225,0 -4.855281,2.0962 -4.855281,5.07756 0,2.69487 1.804811,4.77312 4.534606,4.77312 1.121128,0 2.000249,-0.28942 2.944639,-0.73177 0.31362,-0.14703 0.62829,-0.27971 0.93556,-0.21551 -0.031,-0.44482 -0.031,-0.79555 -0.031,-1.08341 v -1.11443 c 0,-1.23334 0.0942,-1.52216 1.36772,-1.61643 v -0.19011 h -4.19594 v 0.19011"
       style="fill:#231f20;fill-opacity:1;fill-rule:nonzero;stroke:none;stroke-width:0.0352778"
       id="path40" />
    <path
       d="m 96.126944,120.21979 c 1.999192,0 3.204986,-1.23049 3.204986,-2.82645 0,-1.96603 -1.461558,-2.41265 -3.01378,-3.17677 -1.178984,-0.57397 -1.943806,-1.01106 -1.943806,-1.96673 0,-0.79411 0.764822,-1.38113 1.65735,-1.38113 1.323622,0 2.298347,0.87101 2.55517,2.43311 h 0.174977 v -2.76331 h -0.190852 c -0.06385,0.25435 -0.128764,0.4131 -0.350309,0.4131 -0.407458,0 -0.933803,-0.51717 -2.25425,-0.51717 -1.497542,0 -2.858206,1.11372 -2.858206,2.51707 0,1.64959 1.074562,2.15653 2.826809,2.98556 1.233311,0.57256 1.986492,1.0735 1.986492,2.12549 0,1.06574 -0.715434,1.73143 -1.955095,1.73143 -1.626658,0 -2.493786,-1.06751 -2.844447,-2.85115 h -0.17392 v 3.04976 h 0.206728 c 0.02999,-0.24623 0.177447,-0.37182 0.367947,-0.37182 0.474839,0 1.0668,0.59901 2.604206,0.59901"
       style="fill:#231f20;fill-opacity:1;fill-rule:nonzero;stroke:none;stroke-width:0.0352778"
       id="path42" />
    <path
       d="m 78.527918,119.58938 c -1.869722,0 -1.998134,-0.1397 -1.998134,-2.40242 v -1.82598 c 1.648884,0.03 2.191103,0.30516 2.286706,1.73214 h 0.190853 v -3.71969 H 78.81649 c -0.03316,1.30634 -0.605367,1.55187 -2.286706,1.58257 v -3.91019 h 1.361017 c 1.785056,0 2.6035,0.29739 2.922059,1.82739 h 0.191911 l -0.0956,-2.26237 h -7.206192 v 0.19156 h 0.120297 c 1.210028,0 1.241425,0.86043 1.241425,3.14431 v 2.70863 c 0,2.31634 -0.0314,3.17676 -1.241425,3.17676 h -0.120297 v 0.18309 h 7.874353 l 0.09596,-2.82822 h -0.190853 c -0.254706,1.78471 -1.084086,2.40242 -2.954514,2.40242"
       style="fill:#231f20;fill-opacity:1;fill-rule:nonzero;stroke:none;stroke-width:0.0352778"
       id="path44" />
    <path
       d="m 88.986016,124.50534 c 1.146528,0.0318 1.392414,0.76376 1.392414,2.50719 v 4.10034 l -5.437364,-6.79909 h -2.598914 v 0.19156 c 1.210733,0.0318 1.361016,0.79586 1.361016,2.41088 v 4.09395 c 0,1.75303 -0.246239,2.4758 -1.394178,2.5061 v 0.19241 h 3.295651 v -0.19241 c -1.178984,-0.0303 -1.402292,-0.75307 -1.402292,-2.5061 v -5.0468 l 6.272036,7.84892 h 0.40252 v -6.79976 c 0,-1.74343 0.255764,-2.47544 1.402292,-2.50719 v -0.19156 h -3.293181 v 0.19156"
       style="fill:#231f20;fill-opacity:1;fill-rule:nonzero;stroke:none;stroke-width:0.0352778"
       id="path46" />
    <path
       d="m 76.65114,124.50534 h 0.126647 c 1.20262,0 1.20262,0.85866 1.20262,3.14536 v 2.69844 c 0,2.32586 0,3.16893 -1.20262,3.16893 H 76.65114 v 0.19156 h 4.195586 v -0.19156 h -0.128411 c -1.233311,0 -1.233311,-0.87341 -1.233311,-3.2953 v -2.41296 c 0,-2.41194 0,-3.30447 1.233311,-3.30447 h 0.128411 v -0.19156 H 76.65114 v 0.19156"
       style="fill:#231f20;fill-opacity:1;fill-rule:nonzero;stroke:none;stroke-width:0.0352778"
       id="path48" />
    <path
       d="m 110.39469,124.50287 h 0.0938 c 1.21179,0 1.24107,0.85972 1.24107,3.14537 v 0.89746 h -4.705 v -0.73871 c 0,-2.4123 0.0332,-3.30412 1.27459,-3.30412 h 0.0967 v -0.19191 h -4.16666 v 0.19191 h 0.0974 c 1.21038,0 1.24107,0.85972 1.24107,3.14537 v 2.69236 c 0,2.32449 -0.0307,3.17567 -1.24107,3.17567 h -0.0974 v 0.19241 h 4.16666 v -0.19241 h -0.0967 c -1.24143,0 -1.27459,-0.88043 -1.27459,-3.30479 v -1.20011 h 4.705 v 1.32923 c 0,2.32449 -0.0293,3.17567 -1.24107,3.17567 h -0.0938 v 0.19241 h 4.16348 v -0.19241 h -0.0949 c -1.20298,0 -1.23367,-0.85118 -1.23367,-3.17567 v -2.69236 c 0,-2.28565 0.0307,-3.14537 1.23367,-3.14537 h 0.0949 v -0.19191 h -4.16348 v 0.19191"
       style="fill:#231f20;fill-opacity:1;fill-rule:nonzero;stroke:none;stroke-width:0.0352778"
       id="path50" />
    <path
       d="m 136.88654,124.50534 h 0.12806 v -0.19156 l -2.71992,-0.003 -3.06776,7.11168 -2.8709,-7.11168 h -2.97533 v 0.19191 c 0.70203,0.0314 1.08268,0.12629 1.18039,0.4452 0.1263,0.31962 0.18909,1.33809 0.18909,3.01802 v 3.04024 c 0,1.72723 -0.1852,2.48708 -1.41075,2.50581 v 0.20038 l 3.46851,-0.004 v -0.19336 c -1.36949,-0.0624 -1.59103,-0.7553 -1.59103,-2.50899 v -5.41585 l 3.24414,8.11707 h 0.25506 l 3.46463,-8.01088 v 4.53877 c 0,2.4004 -0.009,3.27988 -1.36172,3.27988 v 0.19223 l 4.19559,0.002 v -0.19156 h -0.12806 c -1.23261,0 -1.23261,-0.88223 -1.23261,-3.30412 v -2.40414 c 0,-2.41194 0,-3.30447 1.23261,-3.30447"
       style="fill:#231f20;fill-opacity:1;fill-rule:nonzero;stroke:none;stroke-width:0.0352778"
       id="path52" />
    <path
       d="m 127.85402,112.162 c 0.20778,0 0.27058,0 0.46072,0.0427 v -0.24588 c -0.15134,-0.0635 -0.46461,-0.0801 -0.53446,-0.0801 -1.77976,0 -2.83033,1.2266 -2.83033,2.69486 0,1.82492 1.24178,2.91254 3.11926,2.91254 1.88348,0 3.29777,-1.51695 3.29777,-3.46499 0,-2.06233 -1.60056,-3.6075 -4.10387,-3.6075 -3.95005,0 -6.51228,3.0995 -7.59566,4.95935 l -1.82245,-3.20111 c -0.15804,-0.2868 -0.2226,-0.63747 -0.2226,-0.76376 0,-0.41557 0.28646,-0.57432 0.98672,-0.60572 v -0.19156 h -3.81741 v 0.19156 c 0.73237,0.0353 0.98919,0.66957 1.53247,1.59173 l 2.09303,3.65655 v 1.2647 c 0,1.8468 -0.15769,2.51672 -1.24143,2.51672 h -0.12629 v 0.18309 h 4.197 v -0.18309 h -0.0988 c -1.0735,0 -1.23049,-0.66992 -1.23049,-2.51672 v -1.45697 c 0.96273,-1.59632 3.53236,-4.96217 7.17726,-4.96217 1.82351,0 3.01096,0.93909 3.01096,3.18629 0,2.1022 -0.83255,3.13196 -2.03623,3.13196 -1.26294,0 -1.93358,-0.98743 -1.93358,-2.65218 0,-1.53565 0.92605,-2.4003 1.71839,-2.4003"
       style="fill:#231f20;fill-opacity:1;fill-rule:nonzero;stroke:none;stroke-width:0.0352778"
       id="path54" />
    <path
       d="m 50.825336,119.83209 c -1.170517,-0.0328 -1.392414,-0.76553 -1.392414,-2.51672 v -5.05354 l 6.26992,7.85001 h 0.404283 v -6.78991 c 0,-1.75225 0.254,-2.48567 1.391003,-2.51707 v -0.19121 h -3.294239 v 0.19121 c 1.147939,0.0314 1.401939,0.76482 1.401939,2.51707 v 4.09046 l -5.435954,-6.79874 h -2.605616 v 0.19121 c 1.209322,0.0314 1.36913,0.79622 1.36913,2.42182 v 4.08869 c 0,1.75119 -0.254705,2.48391 -1.402644,2.51672 v 0.18309 h 3.294592 v -0.18309"
       style="fill:#231f20;fill-opacity:1;fill-rule:nonzero;stroke:none;stroke-width:0.0352778"
       id="path56" />
    <path
       d="m 105.17958,119.83209 h -0.12771 c -1.23966,0 -1.23966,-0.89147 -1.23966,-3.30482 v -2.42253 c 0,-2.41123 0,-3.30235 1.23966,-3.30235 h 0.12771 v -0.19156 h -4.203 v 0.19156 h 0.12524 c 1.21144,0 1.21144,0.86043 1.21144,3.14431 v 2.70863 c 0,2.31634 0,3.17676 -1.21144,3.17676 h -0.12524 v 0.18309 h 4.203 v -0.18309"
       style="fill:#231f20;fill-opacity:1;fill-rule:nonzero;stroke:none;stroke-width:0.0352778"
       id="path58" />
    <path
       d="m 134.97307,117.08677 h -0.0938 c -1.05022,0 -1.05022,-0.51787 -1.05022,-2.34174 v -0.76588 c 1.08162,0.03 1.29787,0.2413 1.36067,1.19874 h 0.18379 v -2.61761 h -0.18379 c -0.0314,0.88759 -0.24659,1.06715 -1.36067,1.09679 v -2.67794 h 0.71226 c 1.23402,0 1.75966,0.15981 2.01013,1.21038 h 0.18027 l -0.06,-1.57586 h -4.90538 v 0.21555 h 0.0624 c 0.86537,0 0.89747,0.52635 0.89747,2.165 v 1.96885 c 0,1.60585 -0.0321,2.12372 -0.89747,2.12372 h -0.0624 v 0.24554 h 3.20675 v -0.24554"
       style="fill:#231f20;fill-opacity:1;fill-rule:nonzero;stroke:none;stroke-width:0.0352778"
       id="path60" />
    <path
       d="m 65.041223,112.4294 2.990144,7.7784 h 0.288573 l 2.67088,-6.83119 c 0.607131,-1.55293 1.076325,-2.41265 2.098323,-2.57175 v -0.19121 H 69.73352 v 0.19121 c 0.789164,0.0314 1.108428,0.28645 1.108428,0.98813 0,0.38241 -0.127353,1.05093 -0.469547,1.90077 l -1.598789,4.052 -2.022475,-5.0934 c -0.222956,-0.57186 -0.254,-0.98813 -0.254,-1.05128 0,-0.50977 0.350308,-0.73237 1.107369,-0.79622 v -0.19121 h -4.116564 v 0.19121 c 0.851958,0.0314 1.137708,0.54222 1.553281,1.62454"
       style="fill:#231f20;fill-opacity:1;fill-rule:nonzero;stroke:none;stroke-width:0.0352778"
       id="path62" />
    <path
       d="m 108.65479,111.04581 h 0.72672 v 5.60952 c 0,2.31634 -0.0332,3.17676 -1.24178,3.17676 h -0.12947 v 0.18309 h 4.26191 v -0.18309 h -0.0963 c -1.20967,0 -1.24248,-0.86042 -1.24248,-3.17676 v -5.60952 h 0.69039 c 1.6898,0 2.07927,0.45684 2.42958,2.2987 h 0.19156 v -2.73368 h -8.17916 v 2.73368 h 0.19297 c 0.34819,-1.84186 0.73978,-2.2987 2.39607,-2.2987"
       style="fill:#231f20;fill-opacity:1;fill-rule:nonzero;stroke:none;stroke-width:0.0352778"
       id="path64" />
    <path
       d="m 43.557407,110.80133 c 1.170517,0.0318 1.39312,0.76588 1.39312,2.51707 v 3.03636 c 0,0.26282 0.01623,0.81774 -0.03739,1.13136 -0.165101,1.22484 -0.968376,2.14912 -2.39007,2.14912 -1.792817,0 -2.33927,-0.96696 -2.530828,-1.97661 -0.07796,-0.41311 -0.07197,-0.82515 -0.07197,-1.16276 v -2.54917 c 0,-2.28565 0.03069,-3.14537 1.233664,-3.14537 h 0.128411 v -0.1905 h -4.189942 v 0.1905 h 0.08925 c 1.240014,0 1.27247,0.89218 1.27247,3.30271 v 2.42323 c 0,1.32821 0.226483,2.04646 0.76835,2.65253 0.605014,0.66746 1.763536,1.05763 2.759781,1.05763 2.468386,0 3.315758,-1.36948 3.463572,-2.74496 0.04057,-0.38735 0.03246,-0.85478 0.03246,-1.2005 v -2.97357 c 0,-1.75119 0.254705,-2.48532 1.401233,-2.51707 v -0.1905 h -3.322109 v 0.1905"
       style="fill:#231f20;fill-opacity:1;fill-rule:nonzero;stroke:none;stroke-width:0.0352778"
       id="path66" />
    <path
       d="m 58.613964,110.80239 h 0.125942 c 1.211086,0 1.211086,0.86043 1.211086,3.14431 v 2.70863 c 0,2.31634 0,3.17676 -1.211086,3.17676 h -0.125942 v 0.18309 h 4.205111 v -0.18309 H 62.69137 c -1.242836,0 -1.242836,-0.89147 -1.242836,-3.30482 v -2.42253 c 0,-2.41123 0,-3.30235 1.242836,-3.30235 h 0.127705 v -0.19156 h -4.205111 v 0.19156"
       style="fill:#231f20;fill-opacity:1;fill-rule:nonzero;stroke:none;stroke-width:0.0352778"
       id="path68" />
    <path
       d="m 42.237313,128.69105 c 1.628069,-0.3556 2.303992,-1.19945 2.303992,-2.21086 0,-1.44357 -1.216378,-2.17135 -3.044473,-2.17135 h -4.389614 v 0.19156 h 0.118886 c 1.210381,0 1.241073,0.85831 1.241073,3.14395 v 2.69734 c 0,2.32724 -0.03069,3.17927 -1.241073,3.17927 h -0.118886 v 0.19156 h 4.283781 c 1.018117,0 1.787525,0 2.575278,-0.38393 0.795867,-0.33969 1.414286,-1.17009 1.414286,-2.12506 0,-1.38261 -1.0795,-2.48144 -3.14325,-2.51248 z m -1.610431,-3.94865 c 1.527528,0 2.29235,0.55281 2.29235,1.91453 0,1.40264 -0.791633,1.93746 -2.346325,1.96391 -0.03175,7.1e-4 -0.482247,7.1e-4 -0.63888,7.1e-4 v -3.87915 z m 0.699559,8.53575 c -1.265414,0 -1.392414,-0.41699 -1.392414,-2.20169 v -2.02099 h 1.265414 c 1.561394,0 2.549172,0.56483 2.549172,2.08357 0,1.49751 -0.829381,2.13911 -2.422172,2.13911"
       style="fill:#231f20;fill-opacity:1;fill-rule:nonzero;stroke:none;stroke-width:0.0352778"
       id="path70" />
    <path
       d="m 47.184669,124.5004 h 0.126647 c 1.210381,0 1.210381,0.85831 1.210381,3.14395 v 2.69734 c 0,2.32477 0,3.17638 -1.210381,3.17638 h -0.126647 v 0.19156 h 4.205111 v -0.19156 h -0.127 c -1.233664,0 -1.233664,-0.88223 -1.233664,-3.30412 v -2.40873 c 0,-2.41265 0,-3.30482 1.233664,-3.30482 h 0.127 v -0.19085 h -4.205111 v 0.19085"
       style="fill:#231f20;fill-opacity:1;fill-rule:nonzero;stroke:none;stroke-width:0.0352778"
       id="path72" />
    <path
       d="m 69.06289,131.36546 -2.874434,-7.0545 h -2.974622 v 0.19191 c 0.691444,0.0314 1.074561,0.12629 1.170164,0.4452 0.128411,0.31962 0.191205,1.33809 0.191205,3.01802 v 3.04024 c 0,1.72723 -0.187325,2.48708 -1.402644,2.50581 l -0.0018,0.20038 3.470628,-0.004 v -0.19336 c -1.370895,-0.0624 -1.59385,-0.7553 -1.59385,-2.50899 v -5.41585 l 3.250494,8.06168 h 0.255059 l 3.471333,-7.95549 v 4.53877 c 0,2.4004 -0.0088,3.27988 -1.373717,3.27988 v 0.19223 l 4.209698,0.002 v -0.19156 h -0.126647 c -1.234017,0 -1.234017,-0.88223 -1.234017,-3.30412 v -2.40414 c 0,-2.41194 0,-3.30447 1.234017,-3.30447 h 0.126647 v -0.19156 l -2.722739,-0.003 -3.074811,7.0545"
       style="fill:#231f20;fill-opacity:1;fill-rule:nonzero;stroke:none;stroke-width:0.0352778"
       id="path74" />
    <path
       d="m 122.98145,131.16892 -2.86526,-7.08727 h -0.28469 l -2.60492,6.38147 c -0.66322,1.56944 -1.23719,2.99074 -2.19216,3.05315 l -0.01,0.19241 h 3.20216 l 0.007,-0.19241 c -0.67769,-0.0557 -1.1871,-0.40347 -1.16346,-0.97674 0.0159,-0.38241 0.26917,-1.01959 0.62547,-1.88076 l 0.13829,-0.36957 h 3.1108 l 0.51046,1.29424 c 0.19897,0.54186 0.32915,0.92357 0.31821,1.17976 -0.0201,0.4772 -0.39829,0.69066 -1.16558,0.75307 l -0.009,0.19241 h 4.16419 l 0.0113,-0.19241 c -0.88724,-0.0292 -1.35325,-1.23952 -1.79352,-2.34735 z m -4.95618,-1.33918 1.39383,-3.42575 1.34091,3.42575 h -2.73474"
       style="fill:#231f20;fill-opacity:1;fill-rule:nonzero;stroke:none;stroke-width:0.0352778"
       id="path76" />
    <text
       xml:space="preserve"
       style="font-style:normal;font-weight:normal;font-size:16.9333px;line-height:1.25;font-family:sans-serif;fill:#000000;fill-opacity:1;stroke:none;stroke-width:0.264583"
       x="44.016098"
       y="158.32867"
       id="text452"><tspan
         sodipodi:role="line"
         id="tspan450"
         x="44.016098"
         y="158.32867"
         style="font-style:normal;font-variant:normal;font-weight:bold;font-stretch:normal;font-size:16.9333px;font-family:'Times New Roman';-inkscape-font-specification:'Times New Roman, Bold';fill:#ff0000;stroke-width:0.264583">B</tspan></text>
    <text
       xml:space="preserve"
       style="font-style:normal;font-weight:normal;font-size:16.9333px;line-height:1.25;font-family:sans-serif;fill:#000000;fill-opacity:1;stroke:none;stroke-width:0.264583"
       x="68.927101"
       y="157.85622"
       id="text456"><tspan
         sodipodi:role="line"
         id="tspan454"
         x="68.927101"
         y="157.85622"
         style="font-style:normal;font-variant:normal;font-weight:bold;font-stretch:normal;font-size:16.9333px;font-family:'Times New Roman';-inkscape-font-specification:'Times New Roman, Bold';fill:#0000ff;stroke-width:0.264583">C</tspan></text>
    <text
       xml:space="preserve"
       style="font-style:normal;font-weight:normal;font-size:16.9333px;line-height:1.25;font-family:sans-serif;fill:#000000;fill-opacity:1;stroke:none;stroke-width:0.264583"
       x="93.200264"
       y="157.95071"
       id="text460"><tspan
         sodipodi:role="line"
         id="tspan458"
         x="93.200264"
         y="157.95071"
         style="font-style:normal;font-variant:normal;font-weight:bold;font-stretch:normal;font-size:16.9333px;font-family:'Times New Roman';-inkscape-font-specification:'Times New Roman, Bold';fill:#ffe680;stroke-width:0.264583">G</tspan></text>
    <text
       xml:space="preserve"
       style="font-style:normal;font-weight:normal;font-size:16.9333px;line-height:1.25;font-family:sans-serif;fill:#000000;fill-opacity:1;stroke:none;stroke-width:0.264583"
       x="121.06467"
       y="158.32278"
       id="text452-8"><tspan
         sodipodi:role="line"
         id="tspan450-2"
         x="121.06467"
         y="158.32278"
         style="font-style:normal;font-variant:normal;font-weight:bold;font-stretch:normal;font-size:16.9333px;font-family:'Times New Roman';-inkscape-font-specification:'Times New Roman, Bold';fill:#ff0000;stroke-width:0.264583">B</tspan></text>
    <text
       xml:space="preserve"
       style="font-style:normal;font-weight:normal;font-size:8.99583px;line-height:1.25;font-family:sans-serif;fill:#000000;fill-opacity:1;stroke:none;stroke-width:0.264583"
       x="35.334461"
       y="176.01088"
       id="text1559"><tspan
         sodipodi:role="line"
         id="tspan1557"
         x="35.334461"
         y="176.01088"
         style="font-style:normal;font-variant:normal;font-weight:bold;font-stretch:normal;font-size:8.99583px;font-family:'Times New Roman';-inkscape-font-specification:'Times New Roman, Bold';stroke-width:0.264583">BIRMINGHAM CENTRE</tspan></text>
    <text
       xml:space="preserve"
       style="font-style:normal;font-weight:normal;font-size:7.40833px;line-height:1.25;font-family:sans-serif;fill:#000000;fill-opacity:1;stroke:none;stroke-width:0.264583"
       x="35.050972"
       y="185.1768"
       id="text1563"><tspan
         sodipodi:role="line"
         id="tspan1561"
         x="35.050972"
         y="185.1768"
         style="font-style:normal;font-variant:normal;font-weight:bold;font-stretch:normal;font-size:7.40833px;font-family:'Times New Roman';-inkscape-font-specification:'Times New Roman, Bold';stroke-width:0.264583">FOR</tspan></text>
    <text
       xml:space="preserve"
       style="font-style:normal;font-weight:normal;font-size:8.99583px;line-height:1.25;font-family:sans-serif;fill:#000000;fill-opacity:1;stroke:none;stroke-width:0.264583"
       x="52.532379"
       y="185.36578"
       id="text1567"><tspan
         sodipodi:role="line"
         id="tspan1565"
         x="52.532379"
         y="185.36578"
         style="font-style:normal;font-variant:normal;font-weight:bold;font-stretch:normal;font-size:8.99583px;font-family:'Times New Roman';-inkscape-font-specification:'Times New Roman,  Bold';stroke-width:0.264583">GENOME BIOLOGY</tspan></text>
    <path
       style="fill:none;stroke:#000000;stroke-width:1.0133;stroke-linecap:butt;stroke-linejoin:miter;stroke-miterlimit:4;stroke-dasharray:none;stroke-opacity:1"
       d="M 35.839356,166.39005 H 138.29777"
       id="path1569" />
    <path
       style="fill:none;stroke:#000000;stroke-width:1.0133;stroke-linecap:butt;stroke-linejoin:miter;stroke-miterlimit:4;stroke-dasharray:none;stroke-opacity:1"
       d="M 35.651759,188.43685 H 138.11017"
       id="path1569-2" />
    <path
       style="color:#000000;font-style:normal;font-variant:normal;font-weight:normal;font-stretch:normal;font-size:medium;line-height:normal;font-family:sans-serif;font-variant-ligatures:normal;font-variant-position:normal;font-variant-caps:normal;font-variant-numeric:normal;font-variant-alternates:normal;font-variant-east-asian:normal;font-feature-settings:normal;font-variation-settings:normal;text-indent:0;text-align:start;text-decoration:none;text-decoration-line:none;text-decoration-style:solid;text-decoration-color:#000000;letter-spacing:normal;word-spacing:normal;text-transform:none;writing-mode:lr-tb;direction:ltr;text-orientation:mixed;dominant-baseline:auto;baseline-shift:baseline;text-anchor:start;white-space:normal;shape-padding:0;shape-margin:0;inline-size:0;clip-rule:nonzero;display:inline;overflow:visible;visibility:visible;isolation:auto;mix-blend-mode:normal;color-interpolation:sRGB;color-interpolation-filters:linearRGB;solid-color:#000000;solid-opacity:1;vector-effect:none;fill:#776666;fill-opacity:1;fill-rule:nonzero;stroke:#676168;stroke-width:2;stroke-linecap:round;stroke-linejoin:round;stroke-miterlimit:4;stroke-dasharray:none;stroke-dashoffset:0;stroke-opacity:1;color-rendering:auto;image-rendering:auto;shape-rendering:auto;text-rendering:auto;enable-background:accumulate;stop-color:#000000"
       d="m 53.257188,140.27053 c -1.910218,-0.14618 -4.073652,0.35441 -6.191137,1.32745 -4.234953,1.94606 -8.291071,5.78632 -9.722718,10.22148 l 0.199812,0.0635 c 1.406847,-4.35833 5.425398,-8.171 9.611197,-10.09448 2.0929,-0.96173 4.225564,-1.45133 6.08735,-1.30886 1.861794,0.14247 3.448904,0.90869 4.485742,2.46747 1.467089,2.20561 3.187258,5.12315 3.855323,8.92192 l 0.206013,-0.0356 c -0.675535,-3.84121 -2.41385,-6.78877 -3.8863,-9.00245 -1.074167,-1.6149 -2.735071,-2.41423 -4.645282,-2.56041 z"
       id="path510-6" />
    <path
       style="color:#000000;font-style:normal;font-variant:normal;font-weight:normal;font-stretch:normal;font-size:medium;line-height:normal;font-family:sans-serif;font-variant-ligatures:normal;font-variant-position:normal;font-variant-caps:normal;font-variant-numeric:normal;font-variant-alternates:normal;font-variant-east-asian:normal;font-feature-settings:normal;font-variation-settings:normal;text-indent:0;text-align:start;text-decoration:none;text-decoration-line:none;text-decoration-style:solid;text-decoration-color:#000000;letter-spacing:normal;word-spacing:normal;text-transform:none;writing-mode:lr-tb;direction:ltr;text-orientation:mixed;dominant-baseline:auto;baseline-shift:baseline;text-anchor:start;white-space:normal;shape-padding:0;shape-margin:0;inline-size:0;clip-rule:nonzero;display:inline;overflow:visible;visibility:visible;isolation:auto;mix-blend-mode:normal;color-interpolation:sRGB;color-interpolation-filters:linearRGB;solid-color:#000000;solid-opacity:1;vector-effect:none;fill:#000000;fill-opacity:1;fill-rule:nonzero;stroke:#676168;stroke-width:2;stroke-linecap:round;stroke-linejoin:round;stroke-miterlimit:4;stroke-dasharray:none;stroke-dashoffset:0;stroke-opacity:1;color-rendering:auto;image-rendering:auto;shape-rendering:auto;text-rendering:auto;enable-background:accumulate;stop-color:#000000"
       d="m 87.162024,151.49728 c -0.0161,0.0322 -0.078,0.13065 -0.17348,0.26797 -0.0954,0.13731 -0.22641,0.31768 -0.38879,0.53438 -0.32474,0.4334 -0.77609,1.01152 -1.32744,1.67906 -1.10272,1.33507 -2.60647,3.02987 -4.29677,4.65148 -1.69031,1.6216 -3.56861,3.17019 -5.41821,4.21313 -1.8496,1.04293 -3.66451,1.57531 -5.23233,1.19578 -2.12774,-0.51508 -4.046145,-2.25825 -5.539024,-4.53221 -1.492887,-2.27396 -2.559552,-5.07451 -2.99721,-7.67347 l -0.206013,0.0356 c 0.442821,2.62961 1.517139,5.45084 3.028187,7.75247 1.511047,2.30163 3.45984,4.08835 5.66449,4.62205 1.64705,0.39871 3.51167,-0.16077 5.38568,-1.21747 1.874,-1.0567 3.76186,-2.61496 5.46003,-4.24411 1.69817,-1.62915 3.20546,-3.33005 4.31226,-4.67007 0.55339,-0.67 1.00659,-1.24878 1.33364,-1.68525 0.16352,-0.21823 0.29598,-0.4019 0.39343,-0.54213 0.0974,-0.14022 0.15842,-0.23331 0.18897,-0.2943 z"
       id="path514-8" />
    <path
       style="color:#000000;font-style:normal;font-variant:normal;font-weight:normal;font-stretch:normal;font-size:medium;line-height:normal;font-family:sans-serif;font-variant-ligatures:normal;font-variant-position:normal;font-variant-caps:normal;font-variant-numeric:normal;font-variant-alternates:normal;font-variant-east-asian:normal;font-feature-settings:normal;font-variation-settings:normal;text-indent:0;text-align:start;text-decoration:none;text-decoration-line:none;text-decoration-style:solid;text-decoration-color:#000000;letter-spacing:normal;word-spacing:normal;text-transform:none;writing-mode:lr-tb;direction:ltr;text-orientation:mixed;dominant-baseline:auto;baseline-shift:baseline;text-anchor:start;white-space:normal;shape-padding:0;shape-margin:0;inline-size:0;clip-rule:nonzero;display:inline;overflow:visible;visibility:visible;isolation:auto;mix-blend-mode:normal;color-interpolation:sRGB;color-interpolation-filters:linearRGB;solid-color:#000000;solid-opacity:1;vector-effect:none;fill:#000000;fill-opacity:1;fill-rule:nonzero;stroke:#676168;stroke-width:2;stroke-linecap:round;stroke-linejoin:round;stroke-miterlimit:4;stroke-dasharray:none;stroke-dashoffset:0;stroke-opacity:1;color-rendering:auto;image-rendering:auto;shape-rendering:auto;text-rendering:auto;enable-background:accumulate;stop-color:#000000"
       d="m 103.31441,139.96694 c -1.17069,0.03 -2.5131,0.38597 -4.059776,1.15706 -3.09338,1.54221 -7.0167,4.74244 -12.07712,10.35005 l 0.15644,0.13941 c 5.05087,-5.59702 8.96067,-8.77999 12.01361,-10.30203 3.052946,-1.52205 5.232416,-1.38911 6.881956,-0.37175 1.64954,1.01736 2.77821,2.94327 3.65551,5.04027 0.8773,2.09699 1.50316,4.35895 2.17782,6.04087 l 0.19516,-0.079 c -0.66714,-1.66319 -1.29665,-3.93034 -2.18091,-6.04398 -0.88426,-2.11363 -2.02253,-4.07948 -3.73606,-5.13629 -0.85676,-0.52841 -1.85595,-0.82462 -3.02663,-0.79461 z"
       id="path516-1" />
    <path
       style="color:#000000;font-style:normal;font-variant:normal;font-weight:normal;font-stretch:normal;font-size:medium;line-height:normal;font-family:sans-serif;font-variant-ligatures:normal;font-variant-position:normal;font-variant-caps:normal;font-variant-numeric:normal;font-variant-alternates:normal;font-variant-east-asian:normal;font-feature-settings:normal;font-variation-settings:normal;text-indent:0;text-align:start;text-decoration:none;text-decoration-line:none;text-decoration-style:solid;text-decoration-color:#000000;letter-spacing:normal;word-spacing:normal;text-transform:none;writing-mode:lr-tb;direction:ltr;text-orientation:mixed;dominant-baseline:auto;baseline-shift:baseline;text-anchor:start;white-space:normal;shape-padding:0;shape-margin:0;inline-size:0;clip-rule:nonzero;display:inline;overflow:visible;visibility:visible;isolation:auto;mix-blend-mode:normal;color-interpolation:sRGB;color-interpolation-filters:linearRGB;solid-color:#000000;solid-opacity:1;vector-effect:none;fill:#000000;fill-opacity:1;fill-rule:nonzero;stroke:#676168;stroke-width:2;stroke-linecap:round;stroke-linejoin:round;stroke-miterlimit:4;stroke-dasharray:none;stroke-dashoffset:0;stroke-opacity:1;color-rendering:auto;image-rendering:auto;shape-rendering:auto;text-rendering:auto;enable-background:accumulate;stop-color:#000000"
       d="m 112.26111,151.94957 -0.19982,0.0635 c 1.72918,5.48912 4.00295,8.69836 6.49008,10.30666 2.48713,1.60831 5.17988,1.60148 7.69825,0.68155 2.51838,-0.91994 4.87037,-2.74608 6.71777,-4.7847 1.8474,-2.03861 3.1907,-4.28774 3.68339,-6.07496 l -0.20136,-0.0558 c -0.47862,1.73614 -1.80719,3.97066 -3.63692,5.98977 -1.82973,2.0191 -4.1604,3.8253 -6.63413,4.72892 -2.47373,0.90363 -5.08326,0.91095 -7.51238,-0.65985 -2.42912,-1.57079 -4.68451,-4.73399 -6.40488,-10.19515 z"
       id="path518-6" />
    <path
       style="color:#000000;font-style:normal;font-variant:normal;font-weight:normal;font-stretch:normal;font-size:medium;line-height:normal;font-family:sans-serif;font-variant-ligatures:normal;font-variant-position:normal;font-variant-caps:normal;font-variant-numeric:normal;font-variant-alternates:normal;font-variant-east-asian:normal;font-feature-settings:normal;font-variation-settings:normal;text-indent:0;text-align:start;text-decoration:none;text-decoration-line:none;text-decoration-style:solid;text-decoration-color:#000000;letter-spacing:normal;word-spacing:normal;text-transform:none;writing-mode:lr-tb;direction:ltr;text-orientation:mixed;dominant-baseline:auto;baseline-shift:baseline;text-anchor:start;white-space:normal;shape-padding:0;shape-margin:0;inline-size:0;clip-rule:nonzero;display:inline;overflow:visible;visibility:visible;isolation:auto;mix-blend-mode:normal;color-interpolation:sRGB;color-interpolation-filters:linearRGB;solid-color:#000000;solid-opacity:1;vector-effect:none;fill:#000000;fill-opacity:1;fill-rule:nonzero;stroke:#676168;stroke-width:2;stroke-linecap:round;stroke-linejoin:round;stroke-miterlimit:4;stroke-dasharray:none;stroke-dashoffset:0;stroke-opacity:1;color-rendering:auto;image-rendering:auto;shape-rendering:auto;text-rendering:auto;enable-background:accumulate;stop-color:#000000"
       d="m 61.610641,151.48644 c -3.4859,5.32733 -10.078182,10.38392 -15.490987,11.60778 -2.706411,0.61193 -5.10049,0.27229 -6.696086,-1.43742 -1.595596,-1.7097 -2.407911,-4.82038 -1.875776,-9.79397 l -0.209106,-0.0232 c -0.535521,5.00522 0.273796,8.18342 1.931536,9.95971 1.65774,1.7763 4.146963,2.12093 6.895897,1.49938 5.49786,-1.24309 12.102308,-6.32004 15.621097,-11.69763 z"
       id="path510-3-2" />
    <path
       style="color:#000000;font-style:normal;font-variant:normal;font-weight:normal;font-stretch:normal;font-size:medium;line-height:normal;font-family:sans-serif;font-variant-ligatures:normal;font-variant-position:normal;font-variant-caps:normal;font-variant-numeric:normal;font-variant-alternates:normal;font-variant-east-asian:normal;font-feature-settings:normal;font-variation-settings:normal;text-indent:0;text-align:start;text-decoration:none;text-decoration-line:none;text-decoration-style:solid;text-decoration-color:#000000;letter-spacing:normal;word-spacing:normal;text-transform:none;writing-mode:lr-tb;direction:ltr;text-orientation:mixed;dominant-baseline:auto;baseline-shift:baseline;text-anchor:start;white-space:normal;shape-padding:0;shape-margin:0;inline-size:0;clip-rule:nonzero;display:inline;overflow:visible;visibility:visible;isolation:auto;mix-blend-mode:normal;color-interpolation:sRGB;color-interpolation-filters:linearRGB;solid-color:#000000;solid-opacity:1;vector-effect:none;fill:#000000;fill-opacity:1;fill-rule:nonzero;stroke:#676168;stroke-width:2;stroke-linecap:round;stroke-linejoin:round;stroke-miterlimit:4;stroke-dasharray:none;stroke-dashoffset:0;stroke-opacity:1;color-rendering:auto;image-rendering:auto;shape-rendering:auto;text-rendering:auto;enable-background:accumulate;stop-color:#000000"
       d="m 78.666064,139.15219 c -1.64706,-0.39872 -3.51167,0.16078 -5.38568,1.21747 -1.874,1.0567 -3.76185,2.61496 -5.460024,4.24411 -1.698178,1.62916 -3.205467,3.3285 -4.312261,4.66852 -0.553396,0.67001 -1.006598,1.25033 -1.33364,1.6868 -0.163521,0.21824 -0.295986,0.40036 -0.393437,0.54059 -0.09744,0.14022 -0.158421,0.2333 -0.18897,0.29429 l 0.187424,0.0945 c 0.0161,-0.0322 0.07804,-0.13065 0.173482,-0.26796 0.09543,-0.13732 0.22641,-0.31924 0.388781,-0.53594 0.32475,-0.4334 0.776088,-1.00998 1.327447,-1.67751 1.102717,-1.33508 2.604914,-3.02987 4.295225,-4.65147 1.690303,-1.62161 3.570153,-3.17019 5.419753,-4.21314 1.8496,-1.04293 3.66451,-1.57532 5.23234,-1.19578 2.12773,0.51508 4.04613,2.25825 5.53902,4.53221 1.49288,2.27396 2.55955,5.07295 2.9972,7.67192 l 0.20602,-0.0341 c -0.44282,-2.62962 -1.51714,-5.45084 -3.02819,-7.75247 -1.51105,-2.30163 -3.45984,-4.08835 -5.66449,-4.62205 z"
       id="path514-1-3" />
    <path
       style="color:#000000;font-style:normal;font-variant:normal;font-weight:normal;font-stretch:normal;font-size:medium;line-height:normal;font-family:sans-serif;font-variant-ligatures:normal;font-variant-position:normal;font-variant-caps:normal;font-variant-numeric:normal;font-variant-alternates:normal;font-variant-east-asian:normal;font-feature-settings:normal;font-variation-settings:normal;text-indent:0;text-align:start;text-decoration:none;text-decoration-line:none;text-decoration-style:solid;text-decoration-color:#000000;letter-spacing:normal;word-spacing:normal;text-transform:none;writing-mode:lr-tb;direction:ltr;text-orientation:mixed;dominant-baseline:auto;baseline-shift:baseline;text-anchor:start;white-space:normal;shape-padding:0;shape-margin:0;inline-size:0;clip-rule:nonzero;display:inline;overflow:visible;visibility:visible;isolation:auto;mix-blend-mode:normal;color-interpolation:sRGB;color-interpolation-filters:linearRGB;solid-color:#000000;solid-opacity:1;vector-effect:none;fill:#000000;fill-opacity:1;fill-rule:nonzero;stroke:#676168;stroke-width:2;stroke-linecap:round;stroke-linejoin:round;stroke-miterlimit:4;stroke-dasharray:none;stroke-dashoffset:0;stroke-opacity:1;color-rendering:auto;image-rendering:auto;shape-rendering:auto;text-rendering:auto;enable-background:accumulate;stop-color:#000000"
       d="m 87.381974,151.37492 -0.19517,0.079 c 0.66714,1.66318 1.29665,3.92879 2.18092,6.04243 0.88426,2.11364 2.02407,4.08103 3.7376,5.13784 1.71353,1.05682 3.99304,1.17976 7.086416,-0.36246 3.09337,-1.5422 7.01514,-4.74243 12.07557,-10.35004 l -0.1549,-0.14095 c -5.05086,5.59701 -8.96222,8.78153 -12.01516,10.30357 -3.052936,1.52204 -5.232406,1.38911 -6.881956,0.37175 -1.64954,-1.01735 -2.77666,-2.94328 -3.65396,-5.04027 -0.87729,-2.09698 -1.50471,-4.35896 -2.17936,-6.04087 z"
       id="path516-5-5" />
    <path
       style="color:#000000;font-style:normal;font-variant:normal;font-weight:normal;font-stretch:normal;font-size:medium;line-height:normal;font-family:sans-serif;font-variant-ligatures:normal;font-variant-position:normal;font-variant-caps:normal;font-variant-numeric:normal;font-variant-alternates:normal;font-variant-east-asian:normal;font-feature-settings:normal;font-variation-settings:normal;text-indent:0;text-align:start;text-decoration:none;text-decoration-line:none;text-decoration-style:solid;text-decoration-color:#000000;letter-spacing:normal;word-spacing:normal;text-transform:none;writing-mode:lr-tb;direction:ltr;text-orientation:mixed;dominant-baseline:auto;baseline-shift:baseline;text-anchor:start;white-space:normal;shape-padding:0;shape-margin:0;inline-size:0;clip-rule:nonzero;display:inline;overflow:visible;visibility:visible;isolation:auto;mix-blend-mode:normal;color-interpolation:sRGB;color-interpolation-filters:linearRGB;solid-color:#000000;solid-opacity:1;vector-effect:none;fill:#000000;fill-opacity:1;fill-rule:nonzero;stroke:#676168;stroke-width:2;stroke-linecap:round;stroke-linejoin:round;stroke-miterlimit:4;stroke-dasharray:none;stroke-dashoffset:0;stroke-opacity:1;color-rendering:auto;image-rendering:auto;shape-rendering:auto;text-rendering:auto;enable-background:accumulate;stop-color:#000000"
       d="m 129.19262,140.17295 c -5.37448,0.4774 -12.32281,4.87118 -17.08795,11.61863 l 0.17038,0.12081 c 4.73435,-6.70383 11.65925,-11.0616 16.93615,-11.53033 2.63846,-0.23437 4.85264,0.4939 6.21127,2.36833 1.35863,1.87443 1.86847,4.91943 1.0254,9.34323 l 0.20601,0.0403 c 0.84929,-4.45641 0.34626,-7.56586 -1.06102,-9.50742 -1.40729,-1.94155 -3.71301,-2.69221 -6.40024,-2.45352 z"
       id="path518-4-0" />
  </g>
</svg>
