<?xml version="1.0" encoding="UTF-8" standalone="no"?>
<!-- Created with Inkscape (http://www.inkscape.org/) -->

<svg
   xmlns:dc="http://purl.org/dc/elements/1.1/"
   xmlns:cc="http://creativecommons.org/ns#"
   xmlns:rdf="http://www.w3.org/1999/02/22-rdf-syntax-ns#"
   xmlns:svg="http://www.w3.org/2000/svg"
   xmlns="http://www.w3.org/2000/svg"
   xmlns:sodipodi="http://sodipodi.sourceforge.net/DTD/sodipodi-0.dtd"
   xmlns:inkscape="http://www.inkscape.org/namespaces/inkscape"
   width="306.29086mm"
   height="64.368484mm"
   viewBox="0 0 306.29086 64.368485"
   version="1.1"
   id="svg8"
   inkscape:version="0.92.4 (5da689c313, 2019-01-14)"
   sodipodi:docname="daniocode_logo_short.svg">
  <defs
     id="defs2">
    <style
       id="style826">.cls-1{fill:#fff;}</style>
    <clipPath
       clipPathUnits="userSpaceOnUse"
       id="clipPath950">
      <rect
         style="opacity:1;fill:#000000;fill-opacity:1;fill-rule:nonzero;stroke:#000000;stroke-width:0.78614175;stroke-linecap:butt;stroke-linejoin:miter;stroke-miterlimit:4;stroke-dasharray:none;stroke-dashoffset:0;stroke-opacity:0"
         id="rect952"
         width="1220.2642"
         height="440.42648"
         x="-62.656536"
         y="-104.18253" />
    </clipPath>
  </defs>
  <sodipodi:namedview
     id="base"
     pagecolor="#ffffff"
     bordercolor="#666666"
     borderopacity="1.0"
     inkscape:pageopacity="0.0"
     inkscape:pageshadow="2"
     inkscape:zoom="0.98994949"
     inkscape:cx="774.5657"
     inkscape:cy="299.34426"
     inkscape:document-units="mm"
     inkscape:current-layer="layer1"
     showgrid="false"
     fit-margin-top="0"
     fit-margin-left="0"
     fit-margin-right="0"
     fit-margin-bottom="0"
     inkscape:window-width="3840"
     inkscape:window-height="2050"
     inkscape:window-x="-12"
     inkscape:window-y="14"
     inkscape:window-maximized="1" />
  <metadata
     id="metadata5">
    <rdf:RDF>
      <cc:Work
         rdf:about="">
        <dc:format>image/svg+xml</dc:format>
        <dc:type
           rdf:resource="http://purl.org/dc/dcmitype/StillImage" />
        <dc:title></dc:title>
      </cc:Work>
    </rdf:RDF>
  </metadata>
  <g
     inkscape:label="Layer 1"
     inkscape:groupmode="layer"
     id="layer1"
     transform="translate(204.33614,-183.43244)">
    <g
       id="g940"
       transform="matrix(0.26458333,0,0,0.26458333,-204.32897,183.42516)"
       clip-path="url(#clipPath950)">
      <path
         id="path832"
         d="m 551.05,154.5 a 4.67,4.67 0 0 1 -1.51,-3.51 V 96.44 a 4.75,4.75 0 0 1 1.51,-3.54 5,5 0 0 1 3.63,-1.46 h 15.45 q 17.07,0 25.9,8.33 8.83,8.33 8.83,24.14 0,15.54 -8.92,23.78 -8.92,8.24 -25.23,8.24 h -16 a 5.06,5.06 0 0 1 -3.66,-1.43 z m 20.25,-6.67 a 34.55,34.55 0 0 0 10.88,-1.49 15.62,15.62 0 0 0 7.09,-4.59 18.82,18.82 0 0 0 3.83,-7.48 41.15,41.15 0 0 0 1.17,-10.54 q 0,-13.06 -5.88,-18.63 -5.88,-5.57 -18.54,-5.56 h -10.08 v 48.29 z"
         inkscape:connector-curvature="0" />
      <path
         id="path834"
         d="m 657.74,140.22 h -30.31 l -5,12.84 a 4.76,4.76 0 0 1 -4.64,3.29 5.81,5.81 0 0 1 -2.7,-0.68 4.08,4.08 0 0 1 -2.39,-3.74 4.37,4.37 0 0 1 0.36,-1.71 l 21.13,-52.66 q 1.58,-4 3.54,-5.27 a 8.54,8.54 0 0 1 4.88,-1.29 8.45,8.45 0 0 1 4.8,1.31 q 2,1.31 3.54,5.27 l 21.13,52.66 a 4.72,4.72 0 0 1 0.36,1.76 3.75,3.75 0 0 1 -0.74,2.27 4.89,4.89 0 0 1 -1.89,1.55 5.7,5.7 0 0 1 -2.46,0.54 5.56,5.56 0 0 1 -4.64,-3.29 z m -15.14,-39.37 -12.39,32.07 h 24.73 z"
         inkscape:connector-curvature="0" />
      <path
         id="path836"
         d="m 684.14,154.88 a 4,4 0 0 1 -1.4,-3.27 V 97.88 a 6.47,6.47 0 0 1 1.62,-4.64 5.36,5.36 0 0 1 4.05,-1.71 7.84,7.84 0 0 1 3.51,0.9 A 8.13,8.13 0 0 1 695,95 l 31.89,46 V 95.94 a 4.07,4.07 0 0 1 1.4,-3.27 4.9,4.9 0 0 1 3.29,-1.19 5,5 0 0 1 3.29,1.17 4.06,4.06 0 0 1 1.4,3.29 v 53.74 a 6.22,6.22 0 0 1 -1.73,4.64 5.77,5.77 0 0 1 -4.21,1.71 7.58,7.58 0 0 1 -3.38,-0.9 7.84,7.84 0 0 1 -2.93,-2.48 L 692.16,107 v 44.64 a 4,4 0 0 1 -1.42,3.24 5.27,5.27 0 0 1 -6.6,0 z"
         inkscape:connector-curvature="0" />
      <path
         id="path838"
         d="m 754.28,154.68 a 4.55,4.55 0 0 1 -1.49,-3.6 V 96.39 a 4.57,4.57 0 0 1 1.51,-3.65 5.35,5.35 0 0 1 3.63,-1.31 5.3,5.3 0 0 1 3.58,1.31 4.57,4.57 0 0 1 1.49,3.65 v 54.69 a 4.47,4.47 0 0 1 -1.53,3.63 5.5,5.5 0 0 1 -3.65,1.28 5.21,5.21 0 0 1 -3.54,-1.31 z"
         inkscape:connector-curvature="0" />
      <path
         id="path840"
         d="m 791.24,152.88 a 26.83,26.83 0 0 1 -10.65,-11.67 39.93,39.93 0 0 1 -3.65,-17.61 39.93,39.93 0 0 1 3.64,-17.6 26.84,26.84 0 0 1 10.65,-11.67 32,32 0 0 1 16.6,-4.14 q 14.46,0 22.64,9.05 8.18,9.05 8.18,24.37 0,15.32 -8.18,24.37 -8.18,9.05 -22.63,9.02 a 32,32 0 0 1 -16.6,-4.12 z m 31.42,-10.79 q 5.18,-6.78 5.18,-18.49 0,-11.71 -5.18,-18.47 -5.18,-6.8 -14.82,-6.8 -9.64,0 -14.84,6.8 -5.18,6.8 -5.18,18.47 0,11.67 5.2,18.49 5.2,6.78 14.84,6.78 9.64,0 14.8,-6.78 z"
         inkscape:connector-curvature="0" />
      <path
         id="path842"
         d="m 846.69,130 a 3.24,3.24 0 0 1 -1.1,-2.52 3.36,3.36 0 0 1 1.1,-2.59 4,4 0 0 1 2.82,-1 h 18.92 a 3.92,3.92 0 0 1 2.79,1 3.39,3.39 0 0 1 1.08,2.59 3.24,3.24 0 0 1 -1.1,2.52 4,4 0 0 1 -2.77,1 H 849.5 a 4.05,4.05 0 0 1 -2.81,-1 z"
         inkscape:connector-curvature="0" />
      <path
         id="path844"
         d="M 893.47,152.7 A 27.9,27.9 0 0 1 883,140.85 a 38.93,38.93 0 0 1 -3.6,-17 38.45,38.45 0 0 1 3.78,-17.34 28.71,28.71 0 0 1 10.88,-12 30.63,30.63 0 0 1 16.33,-4.35 34,34 0 0 1 16.35,4.14 4.54,4.54 0 0 1 1.8,1.55 3.61,3.61 0 0 1 0.59,2 4.06,4.06 0 0 1 -0.54,2 4.27,4.27 0 0 1 -1.46,1.55 3.6,3.6 0 0 1 -2,0.59 4.28,4.28 0 0 1 -0.74,-0.07 2.71,2.71 0 0 1 -0.74,-0.25 l -1.4,-0.7 a 21.1,21.1 0 0 0 -2.07,-0.92 q -0.86,-0.31 -2.34,-0.79 a 18.43,18.43 0 0 0 -3.29,-0.7 31,31 0 0 0 -3.83,-0.23 20.68,20.68 0 0 0 -9.1,1.91 16.84,16.84 0 0 0 -6.44,5.34 24.69,24.69 0 0 0 -3.74,8 41.1,41.1 0 0 0 0,20.2 23.91,23.91 0 0 0 3.78,8 16.75,16.75 0 0 0 6.58,5.22 22,22 0 0 0 9.33,1.87 21.56,21.56 0 0 0 5.29,-0.65 24.08,24.08 0 0 0 4.14,-1.37 q 1.55,-0.72 3.9,-2 a 3.71,3.71 0 0 1 1.8,-0.5 3.4,3.4 0 0 1 2.61,1.19 4,4 0 0 1 1.08,2.77 4.4,4.4 0 0 1 -2.3,3.78 33.36,33.36 0 0 1 -18.23,4.91 29.37,29.37 0 0 1 -15.95,-4.3 z"
         inkscape:connector-curvature="0" />
      <path
         id="path846"
         d="m 954.53,152.88 a 26.83,26.83 0 0 1 -10.65,-11.67 39.93,39.93 0 0 1 -3.65,-17.61 39.93,39.93 0 0 1 3.65,-17.6 26.84,26.84 0 0 1 10.65,-11.67 32,32 0 0 1 16.6,-4.14 q 14.46,0 22.64,9.05 8.18,9.05 8.18,24.37 0,15.32 -8.18,24.37 -8.18,9.05 -22.64,9.02 a 32,32 0 0 1 -16.6,-4.12 z m 31.42,-10.79 q 5.18,-6.78 5.18,-18.49 0,-11.71 -5.18,-18.47 -5.18,-6.8 -14.82,-6.8 -9.64,0 -14.87,6.8 -5.18,6.8 -5.18,18.47 0,11.67 5.2,18.49 5.2,6.78 14.84,6.78 9.64,0 14.83,-6.78 z"
         inkscape:connector-curvature="0" />
      <path
         id="path848"
         d="M 1016.56,154.5 A 4.67,4.67 0 0 1 1015,151 V 96.44 a 4.75,4.75 0 0 1 1.51,-3.54 5,5 0 0 1 3.63,-1.46 h 15.45 q 17.07,0 25.9,8.33 8.83,8.33 8.83,24.14 0,15.54 -8.92,23.78 -8.92,8.24 -25.23,8.24 h -16 a 5.06,5.06 0 0 1 -3.61,-1.43 z m 20.25,-6.67 a 34.55,34.55 0 0 0 10.88,-1.49 15.62,15.62 0 0 0 7.09,-4.59 18.82,18.82 0 0 0 3.83,-7.48 41.15,41.15 0 0 0 1.17,-10.54 q 0,-13.06 -5.88,-18.63 -5.88,-5.57 -18.54,-5.56 h -10.09 v 48.29 z"
         inkscape:connector-curvature="0" />
      <path
         id="path850"
         d="m 1085,154.52 a 4.68,4.68 0 0 1 -1.55,-3.45 V 96.44 a 4.87,4.87 0 0 1 1.42,-3.47 4.59,4.59 0 0 1 3.45,-1.49 h 33.15 a 3.58,3.58 0 0 1 2.88,1.22 4.24,4.24 0 0 1 1,2.84 4.33,4.33 0 0 1 -1,2.86 3.55,3.55 0 0 1 -2.88,1.24 H 1093.7 V 119 h 26.17 a 3.76,3.76 0 0 1 3,1.17 4.22,4.22 0 0 1 0,5.56 3.74,3.74 0 0 1 -3,1.19 h -26.17 v 21 h 28.88 a 3.61,3.61 0 0 1 2.93,1.24 4.33,4.33 0 0 1 1,2.86 4.18,4.18 0 0 1 -1,2.79 3.64,3.64 0 0 1 -2.93,1.22 h -34.05 a 4.89,4.89 0 0 1 -3.53,-1.51 z"
         inkscape:connector-curvature="0" />
      <path
         id="path852"
         d="m 1167.19,154.5 a 4.67,4.67 0 0 1 -1.51,-3.51 V 96.44 a 4.75,4.75 0 0 1 1.51,-3.54 5,5 0 0 1 3.63,-1.46 h 15.45 q 17.07,0 25.9,8.33 8.83,8.33 8.83,24.14 0,15.54 -8.92,23.78 -8.92,8.24 -25.23,8.24 h -16 a 5.06,5.06 0 0 1 -3.66,-1.43 z m 20.25,-6.67 a 34.55,34.55 0 0 0 10.88,-1.49 15.62,15.62 0 0 0 7.09,-4.59 18.82,18.82 0 0 0 3.83,-7.48 41.15,41.15 0 0 0 1.17,-10.54 q 0,-13.06 -5.88,-18.63 -5.88,-5.57 -18.53,-5.56 h -10.09 v 48.29 z"
         inkscape:connector-curvature="0" />
      <path
         id="path854"
         d="m 1233.75,153.37 q -4.42,-3.38 -4.41,-9.59 a 17.34,17.34 0 0 1 0.56,-4.66 11.88,11.88 0 0 1 1.55,-3.47 8,8 0 0 1 2.84,-2.48 20.38,20.38 0 0 1 3.94,-1.64 29.77,29.77 0 0 1 5.41,-1 q 3.31,-0.34 6.67,-0.45 3.36,-0.11 8.22,-0.11 v -4.41 q 0,-9.1 -9.1,-9.1 a 25.6,25.6 0 0 0 -5.45,0.61 31.42,31.42 0 0 0 -4.21,1.15 q -1.42,0.54 -3.76,1.53 a 2.9,2.9 0 0 1 -1.13,0.23 2.68,2.68 0 0 1 -0.86,-0.14 3,3 0 0 1 -0.77,-0.38 3.4,3.4 0 0 1 -0.65,-0.59 3.9,3.9 0 0 1 -0.81,-1.51 3,3 0 0 1 -0.11,-0.81 2.64,2.64 0 0 1 0.36,-1.37 2.76,2.76 0 0 1 1.13,-1 34.3,34.3 0 0 1 16.58,-3.78 q 8.29,0 13.06,3.87 4.77,3.87 4.78,12.07 v 25.41 a 3.94,3.94 0 0 1 -1.35,3.18 4.72,4.72 0 0 1 -3.15,1.15 4.81,4.81 0 0 1 -2.14,-0.47 4.11,4.11 0 0 1 -1.62,-1.44 4,4 0 0 1 -0.65,-2.32 v -3.33 q -4,8.24 -13.47,8.24 -7.05,-0.01 -11.46,-3.39 z m 21,-6.62 a 14.62,14.62 0 0 0 3.74,-10.32 v -1.26 q -4.32,0 -7.21,0.11 -2.89,0.11 -5.34,0.45 a 17.8,17.8 0 0 0 -3.85,0.88 7.4,7.4 0 0 0 -2.41,1.49 4.77,4.77 0 0 0 -1.37,2.23 11.54,11.54 0 0 0 -0.36,3.09 q 0,3.78 2.21,5.59 a 9.12,9.12 0 0 0 5.95,1.8 11.46,11.46 0 0 0 8.63,-4.06 z"
         inkscape:connector-curvature="0" />
      <path
         id="path856"
         d="m 1286.9,153.1 q -3.2,-3.47 -3.2,-10.18 v -25.45 h -5.23 a 3.41,3.41 0 0 1 -2.48,-0.83 2.86,2.86 0 0 1 -0.86,-2.14 2.82,2.82 0 0 1 0.83,-2.12 3.39,3.39 0 0 1 2.46,-0.81 h 5.27 l 1.22,-12.48 a 4.5,4.5 0 0 1 1.46,-2.84 4.29,4.29 0 0 1 3,-1.13 3.23,3.23 0 0 1 3.42,3.56 v 12.88 h 8.06 a 3.2,3.2 0 0 1 2.43,0.86 3,3 0 0 1 0.81,2.16 2.79,2.79 0 0 1 -0.81,2.09 3.36,3.36 0 0 1 -2.43,0.79 h -8.06 V 141 q 0,4.32 1.22,6.4 a 4.24,4.24 0 0 0 4,2.07 h 0.45 l 3.2,-0.18 h 0.27 a 3.4,3.4 0 0 1 2.64,1.06 3.53,3.53 0 0 1 1,2.46 3.6,3.6 0 0 1 -0.23,1.31 2.93,2.93 0 0 1 -0.59,1 3,3 0 0 1 -1,0.65 8.26,8.26 0 0 1 -1.19,0.43 9.55,9.55 0 0 1 -1.46,0.25 q -0.88,0.09 -1.6,0.11 h -1.71 -2.16 a 11.24,11.24 0 0 1 -8.73,-3.46 z"
         inkscape:connector-curvature="0" />
      <path
         id="path858"
         d="m 1315.28,153.37 q -4.42,-3.38 -4.41,-9.59 a 17.34,17.34 0 0 1 0.56,-4.66 11.88,11.88 0 0 1 1.55,-3.47 8,8 0 0 1 2.84,-2.48 20.38,20.38 0 0 1 3.94,-1.64 29.77,29.77 0 0 1 5.41,-1 q 3.31,-0.34 6.67,-0.45 3.36,-0.11 8.22,-0.11 v -4.41 q 0,-9.1 -9.1,-9.1 a 25.6,25.6 0 0 0 -5.45,0.61 31.42,31.42 0 0 0 -4.21,1.15 q -1.42,0.54 -3.76,1.53 a 2.9,2.9 0 0 1 -1.13,0.23 2.68,2.68 0 0 1 -0.86,-0.14 3,3 0 0 1 -0.77,-0.38 3.4,3.4 0 0 1 -0.65,-0.59 3.9,3.9 0 0 1 -0.81,-1.51 3,3 0 0 1 -0.11,-0.81 2.64,2.64 0 0 1 0.36,-1.37 2.76,2.76 0 0 1 1.13,-1 34.3,34.3 0 0 1 16.58,-3.78 q 8.29,0 13.06,3.87 4.77,3.87 4.78,12.07 v 25.41 a 3.94,3.94 0 0 1 -1.35,3.18 4.72,4.72 0 0 1 -3.15,1.15 4.81,4.81 0 0 1 -2.14,-0.47 4.11,4.11 0 0 1 -1.62,-1.44 4,4 0 0 1 -0.65,-2.32 v -3.33 q -4,8.24 -13.47,8.24 -7.04,-0.01 -11.46,-3.39 z m 21,-6.62 a 14.62,14.62 0 0 0 3.74,-10.32 v -1.26 q -4.32,0 -7.21,0.11 -2.89,0.11 -5.34,0.45 a 17.8,17.8 0 0 0 -3.85,0.88 7.4,7.4 0 0 0 -2.41,1.49 4.77,4.77 0 0 0 -1.37,2.23 11.54,11.54 0 0 0 -0.36,3.09 q 0,3.78 2.21,5.59 a 9.12,9.12 0 0 0 5.95,1.8 11.46,11.46 0 0 0 8.63,-4.06 z"
         inkscape:connector-curvature="0" />
      <path
         id="path860"
         d="m 1400.78,152.7 a 27.9,27.9 0 0 1 -10.5,-11.85 38.93,38.93 0 0 1 -3.6,-17 38.45,38.45 0 0 1 3.78,-17.34 28.71,28.71 0 0 1 10.88,-12 30.63,30.63 0 0 1 16.33,-4.35 34,34 0 0 1 16.33,4.16 4.54,4.54 0 0 1 1.8,1.55 3.61,3.61 0 0 1 0.59,2 4.06,4.06 0 0 1 -0.54,2 4.27,4.27 0 0 1 -1.46,1.55 3.6,3.6 0 0 1 -2,0.59 4.28,4.28 0 0 1 -0.74,-0.07 2.71,2.71 0 0 1 -0.74,-0.25 l -1.4,-0.7 a 21.1,21.1 0 0 0 -2.07,-0.92 q -0.86,-0.31 -2.34,-0.79 a 18.43,18.43 0 0 0 -3.29,-0.7 31,31 0 0 0 -3.83,-0.23 20.68,20.68 0 0 0 -9.1,1.91 16.84,16.84 0 0 0 -6.44,5.34 24.69,24.69 0 0 0 -3.74,8 41.1,41.1 0 0 0 0,20.2 23.91,23.91 0 0 0 3.78,8 16.75,16.75 0 0 0 6.58,5.27 22,22 0 0 0 9.33,1.87 21.56,21.56 0 0 0 5.29,-0.65 24.08,24.08 0 0 0 4.14,-1.37 q 1.55,-0.72 3.9,-2 a 3.71,3.71 0 0 1 1.8,-0.5 3.4,3.4 0 0 1 2.61,1.19 4,4 0 0 1 1.08,2.77 4.4,4.4 0 0 1 -2.3,3.78 33.36,33.36 0 0 1 -18.24,4.91 29.37,29.37 0 0 1 -15.89,-4.37 z"
         inkscape:connector-curvature="0" />
      <path
         id="path862"
         d="m 1459.07,154.88 a 19.43,19.43 0 0 1 -7.21,-5.07 22.68,22.68 0 0 1 -4.28,-7.34 26.08,26.08 0 0 1 -1.49,-8.87 26.41,26.41 0 0 1 1.49,-8.94 22.45,22.45 0 0 1 4.3,-7.37 19.48,19.48 0 0 1 7.21,-5 25.17,25.17 0 0 1 9.84,-1.85 23.65,23.65 0 0 1 12.41,3.15 20.06,20.06 0 0 1 7.84,8.36 25.87,25.87 0 0 1 2.59,11.69 26.14,26.14 0 0 1 -1.49,8.85 22.62,22.62 0 0 1 -4.28,7.37 19.45,19.45 0 0 1 -7.21,5.07 27,27 0 0 1 -19.73,0 z m 20.09,-8.85 q 3.65,-4.5 3.65,-12.43 0,-7.93 -3.69,-12.46 a 13.67,13.67 0 0 0 -20.38,0 q -3.67,4.55 -3.67,12.48 0,7.93 3.69,12.43 a 12.4,12.4 0 0 0 10.18,4.55 q 6.57,-0.06 10.22,-4.6 z"
         inkscape:connector-curvature="0" />
      <path
         id="path864"
         d="m 1511.91,154.88 a 19.43,19.43 0 0 1 -7.21,-5.07 22.68,22.68 0 0 1 -4.28,-7.34 26.08,26.08 0 0 1 -1.49,-8.87 26.41,26.41 0 0 1 1.49,-8.94 22.45,22.45 0 0 1 4.3,-7.37 19.48,19.48 0 0 1 7.21,-5 25.17,25.17 0 0 1 9.84,-1.85 23.65,23.65 0 0 1 12.41,3.15 20.06,20.06 0 0 1 7.84,8.36 25.87,25.87 0 0 1 2.59,11.69 26.14,26.14 0 0 1 -1.49,8.85 22.62,22.62 0 0 1 -4.28,7.37 19.45,19.45 0 0 1 -7.21,5.07 27,27 0 0 1 -19.73,0 z M 1532,146 q 3.65,-4.5 3.65,-12.43 0,-7.93 -3.65,-12.43 a 13.67,13.67 0 0 0 -20.38,0 q -3.67,4.55 -3.67,12.48 0,7.93 3.69,12.43 a 12.4,12.4 0 0 0 10.18,4.55 q 6.53,-0.06 10.18,-4.6 z"
         inkscape:connector-curvature="0" />
      <path
         id="path866"
         d="m 1556,154.93 a 3.92,3.92 0 0 1 -1.31,-3.18 v -36.4 a 3.73,3.73 0 0 1 1.37,-3.09 5,5 0 0 1 3.22,-1.1 5.85,5.85 0 0 1 1.37,0.16 4.35,4.35 0 0 1 1.22,0.5 4.72,4.72 0 0 1 1,0.79 3.28,3.28 0 0 1 0.68,1.1 4,4 0 0 1 0.25,1.42 l -0.09,5.54 a 13.44,13.44 0 0 1 4.57,-7 12.21,12.21 0 0 1 8,-2.84 3,3 0 0 1 2.52,1.17 4.45,4.45 0 0 1 0.9,2.79 4.16,4.16 0 0 1 -0.81,2.57 2.7,2.7 0 0 1 -2.3,1.08 q -6,0 -9.39,2.79 -3.39,2.79 -3.4,8.51 v 22 a 3.83,3.83 0 0 1 -1.4,3.15 5,5 0 0 1 -3.24,1.13 4.72,4.72 0 0 1 -3.16,-1.09 z"
         inkscape:connector-curvature="0" />
      <path
         id="path868"
         d="m 1596.19,154.84 a 16.93,16.93 0 0 1 -6.1,-5.18 24.78,24.78 0 0 1 -3.63,-7.46 30.79,30.79 0 0 1 -1.26,-8.92 q 0,-10.09 5.41,-16.49 5.41,-6.4 14.68,-6.4 10.18,0 14.55,7.88 V 95.76 a 3.81,3.81 0 0 1 1.35,-3.13 4.9,4.9 0 0 1 3.2,-1.1 4.81,4.81 0 0 1 3.18,1.1 3.84,3.84 0 0 1 1.33,3.13 v 55.9 a 3.94,3.94 0 0 1 -1.35,3.18 4.78,4.78 0 0 1 -3.2,1.15 4.67,4.67 0 0 1 -3.33,-1.1 4.21,4.21 0 0 1 -1.17,-3.22 v -3.2 q -4.46,8.29 -15.23,8.29 a 18.21,18.21 0 0 1 -8.43,-1.92 z m 16.64,-5.5 a 9.58,9.58 0 0 0 4.12,-3.58 16.72,16.72 0 0 0 2.16,-5.36 32.14,32.14 0 0 0 0.68,-7 28.33,28.33 0 0 0 -0.43,-5 18.63,18.63 0 0 0 -1.44,-4.57 14.75,14.75 0 0 0 -2.48,-3.78 10.47,10.47 0 0 0 -3.69,-2.55 12.63,12.63 0 0 0 -5,-0.95 11.37,11.37 0 0 0 -5.95,1.51 10.46,10.46 0 0 0 -3.9,4 20.93,20.93 0 0 0 -2,5.36 26.42,26.42 0 0 0 -0.65,5.95 27.56,27.56 0 0 0 0.61,5.83 23.29,23.29 0 0 0 1.91,5.45 10.45,10.45 0 0 0 3.81,4.23 10.94,10.94 0 0 0 5.88,1.64 14.89,14.89 0 0 0 6.37,-1.18 z"
         inkscape:connector-curvature="0" />
      <path
         id="path870"
         d="m 1642.81,99.79 a 5,5 0 0 1 -1.58,-3.85 5.08,5.08 0 0 1 1.58,-3.87 5.79,5.79 0 0 1 4.14,-1.49 5.58,5.58 0 0 1 4.05,1.49 5.16,5.16 0 0 1 1.53,3.87 5,5 0 0 1 -1.55,3.85 5.7,5.7 0 0 1 -4.08,1.46 5.78,5.78 0 0 1 -4.09,-1.46 z m 0.86,55.07 a 4.3,4.3 0 0 1 -1.31,-3.38 v -35.81 a 4.22,4.22 0 0 1 1.37,-3.33 4.7,4.7 0 0 1 3.22,-1.22 4.56,4.56 0 0 1 3.15,1.22 4.26,4.26 0 0 1 1.35,3.33 v 35.81 a 4.22,4.22 0 0 1 -1.37,3.33 4.7,4.7 0 0 1 -3.22,1.22 4.62,4.62 0 0 1 -3.19,-1.17 z"
         inkscape:connector-curvature="0" />
      <path
         id="path872"
         d="m 1665.58,154.88 a 4,4 0 0 1 -1.33,-3.18 v -36.3 a 3.81,3.81 0 0 1 1.35,-3.13 5.19,5.19 0 0 1 6.37,0 3.68,3.68 0 0 1 1.33,3 v 3.2 a 12.65,12.65 0 0 1 5.65,-6 18.69,18.69 0 0 1 9,-2.07 19.24,19.24 0 0 1 6.37,1 15.09,15.09 0 0 1 5.18,3.06 13.49,13.49 0 0 1 3.54,5.45 22.4,22.4 0 0 1 1.26,7.82 v 24 a 3.92,3.92 0 0 1 -1.37,3.18 4.87,4.87 0 0 1 -3.22,1.15 4.69,4.69 0 0 1 -3.18,-1.15 4,4 0 0 1 -1.33,-3.18 v -24.08 q 0,-5.41 -2.61,-8.24 a 9.14,9.14 0 0 0 -7.07,-2.84 11.28,11.28 0 0 0 -8.51,3.72 q -3.51,3.72 -3.69,10 v 21.4 a 3.94,3.94 0 0 1 -1.35,3.18 4.78,4.78 0 0 1 -3.2,1.15 4.69,4.69 0 0 1 -3.19,-1.14 z"
         inkscape:connector-curvature="0" />
      <path
         id="path874"
         d="m 1717.91,153.37 q -4.42,-3.38 -4.41,-9.59 a 17.34,17.34 0 0 1 0.56,-4.66 11.88,11.88 0 0 1 1.55,-3.47 8,8 0 0 1 2.84,-2.48 20.38,20.38 0 0 1 3.94,-1.64 29.77,29.77 0 0 1 5.41,-1 q 3.31,-0.34 6.67,-0.45 3.36,-0.11 8.22,-0.11 v -4.41 q 0,-9.1 -9.1,-9.1 a 25.6,25.6 0 0 0 -5.45,0.61 31.42,31.42 0 0 0 -4.21,1.15 q -1.42,0.54 -3.76,1.53 a 2.9,2.9 0 0 1 -1.13,0.23 2.68,2.68 0 0 1 -0.86,-0.14 3,3 0 0 1 -0.77,-0.38 3.4,3.4 0 0 1 -0.65,-0.59 3.9,3.9 0 0 1 -0.81,-1.51 3,3 0 0 1 -0.11,-0.81 2.64,2.64 0 0 1 0.36,-1.37 2.76,2.76 0 0 1 1.13,-1 34.3,34.3 0 0 1 16.58,-3.78 q 8.29,0 13.06,3.87 4.77,3.87 4.78,12.07 v 25.41 a 3.94,3.94 0 0 1 -1.35,3.18 4.72,4.72 0 0 1 -3.15,1.15 4.81,4.81 0 0 1 -2.14,-0.47 4.11,4.11 0 0 1 -1.62,-1.44 4,4 0 0 1 -0.65,-2.32 v -3.33 q -4,8.24 -13.47,8.24 -7.05,-0.01 -11.46,-3.39 z m 21,-6.62 a 14.62,14.62 0 0 0 3.74,-10.32 v -1.26 q -4.32,0 -7.21,0.11 -2.89,0.11 -5.34,0.45 a 17.8,17.8 0 0 0 -3.85,0.88 7.4,7.4 0 0 0 -2.41,1.49 4.77,4.77 0 0 0 -1.37,2.23 11.54,11.54 0 0 0 -0.36,3.09 q 0,3.78 2.21,5.59 a 9.12,9.12 0 0 0 5.95,1.8 11.46,11.46 0 0 0 8.63,-4.06 z"
         inkscape:connector-curvature="0" />
      <path
         id="path876"
         d="m 1771.06,153.1 q -3.2,-3.47 -3.2,-10.18 v -25.45 h -5.23 a 3.41,3.41 0 0 1 -2.48,-0.83 2.86,2.86 0 0 1 -0.86,-2.14 2.82,2.82 0 0 1 0.83,-2.12 3.39,3.39 0 0 1 2.46,-0.81 h 5.27 l 1.22,-12.48 a 4.5,4.5 0 0 1 1.46,-2.84 4.29,4.29 0 0 1 3,-1.13 3.23,3.23 0 0 1 3.42,3.56 v 12.88 h 8.05 a 3.2,3.2 0 0 1 2.43,0.86 3,3 0 0 1 0.81,2.16 2.79,2.79 0 0 1 -0.81,2.09 3.36,3.36 0 0 1 -2.43,0.79 h -8 V 141 q 0,4.32 1.22,6.4 a 4.24,4.24 0 0 0 4,2.07 h 0.45 l 3.2,-0.18 h 0.27 a 3.4,3.4 0 0 1 2.64,1.06 3.53,3.53 0 0 1 1,2.46 3.6,3.6 0 0 1 -0.23,1.31 2.93,2.93 0 0 1 -0.59,1 3,3 0 0 1 -1,0.65 8.26,8.26 0 0 1 -1.19,0.43 9.55,9.55 0 0 1 -1.46,0.25 q -0.88,0.09 -1.6,0.11 h -1.71 -2.16 a 11.24,11.24 0 0 1 -8.78,-3.46 z"
         inkscape:connector-curvature="0" />
      <path
         id="path878"
         d="m 1799.26,99.79 a 5,5 0 0 1 -1.58,-3.85 5.08,5.08 0 0 1 1.58,-3.87 5.79,5.79 0 0 1 4.14,-1.49 5.58,5.58 0 0 1 4.05,1.49 5.16,5.16 0 0 1 1.53,3.87 5,5 0 0 1 -1.55,3.85 5.7,5.7 0 0 1 -4.08,1.46 5.78,5.78 0 0 1 -4.09,-1.46 z m 0.86,55.07 a 4.3,4.3 0 0 1 -1.31,-3.38 v -35.81 a 4.22,4.22 0 0 1 1.37,-3.33 4.7,4.7 0 0 1 3.22,-1.22 4.56,4.56 0 0 1 3.15,1.22 4.26,4.26 0 0 1 1.35,3.33 v 35.81 a 4.22,4.22 0 0 1 -1.37,3.33 4.7,4.7 0 0 1 -3.22,1.22 4.62,4.62 0 0 1 -3.2,-1.17 z"
         inkscape:connector-curvature="0" />
      <path
         id="path880"
         d="m 1830.84,154.88 a 19.43,19.43 0 0 1 -7.21,-5.07 22.68,22.68 0 0 1 -4.28,-7.34 26.08,26.08 0 0 1 -1.49,-8.87 26.41,26.41 0 0 1 1.49,-8.94 22.45,22.45 0 0 1 4.3,-7.37 19.48,19.48 0 0 1 7.21,-5 25.17,25.17 0 0 1 9.84,-1.85 23.65,23.65 0 0 1 12.41,3.15 20.06,20.06 0 0 1 7.84,8.36 25.87,25.87 0 0 1 2.59,11.69 26.14,26.14 0 0 1 -1.49,8.85 22.62,22.62 0 0 1 -4.28,7.37 19.45,19.45 0 0 1 -7.21,5.07 27,27 0 0 1 -19.73,0 z m 20.09,-8.85 q 3.65,-4.5 3.65,-12.43 0,-7.93 -3.69,-12.46 a 13.67,13.67 0 0 0 -20.38,0 q -3.67,4.55 -3.67,12.48 0,7.93 3.69,12.43 a 12.4,12.4 0 0 0 10.18,4.55 q 6.57,-0.06 10.22,-4.6 z"
         inkscape:connector-curvature="0" />
      <path
         id="path882"
         d="m 1874.87,154.88 a 4,4 0 0 1 -1.33,-3.18 v -36.3 a 3.81,3.81 0 0 1 1.35,-3.13 5.19,5.19 0 0 1 6.37,0 3.68,3.68 0 0 1 1.33,3 v 3.2 a 12.65,12.65 0 0 1 5.65,-6 18.69,18.69 0 0 1 9,-2.07 19.24,19.24 0 0 1 6.37,1 15.09,15.09 0 0 1 5.18,3.06 13.49,13.49 0 0 1 3.54,5.45 22.4,22.4 0 0 1 1.26,7.82 v 24 a 3.92,3.92 0 0 1 -1.37,3.18 4.87,4.87 0 0 1 -3.22,1.09 4.69,4.69 0 0 1 -3.18,-1.15 4,4 0 0 1 -1.33,-3.18 v -24.02 q 0,-5.41 -2.61,-8.24 a 9.14,9.14 0 0 0 -7.07,-2.84 11.28,11.28 0 0 0 -8.51,3.72 q -3.51,3.72 -3.69,10 v 21.4 a 3.94,3.94 0 0 1 -1.35,3.18 4.78,4.78 0 0 1 -3.26,1.13 4.69,4.69 0 0 1 -3.13,-1.12 z"
         inkscape:connector-curvature="0" />
      <path
         id="path884"
         d="m 1965.12,152.7 a 27.9,27.9 0 0 1 -10.5,-11.85 38.93,38.93 0 0 1 -3.6,-17 38.45,38.45 0 0 1 3.78,-17.34 28.71,28.71 0 0 1 10.88,-12 30.63,30.63 0 0 1 16.32,-4.33 34,34 0 0 1 16.35,4.14 4.54,4.54 0 0 1 1.8,1.55 3.61,3.61 0 0 1 0.59,2 4.06,4.06 0 0 1 -0.54,2 4.27,4.27 0 0 1 -1.46,1.55 3.6,3.6 0 0 1 -2,0.59 4.28,4.28 0 0 1 -0.74,-0.07 2.71,2.71 0 0 1 -0.74,-0.25 l -1.4,-0.7 a 21.1,21.1 0 0 0 -2.07,-0.92 q -0.86,-0.31 -2.34,-0.79 a 18.43,18.43 0 0 0 -3.29,-0.7 31,31 0 0 0 -3.83,-0.23 20.68,20.68 0 0 0 -9.1,1.91 16.84,16.84 0 0 0 -6.44,5.34 24.69,24.69 0 0 0 -3.74,8 41.1,41.1 0 0 0 0,20.2 23.91,23.91 0 0 0 3.78,8 16.75,16.75 0 0 0 6.58,5.27 22,22 0 0 0 9.33,1.87 21.56,21.56 0 0 0 5.29,-0.65 24.08,24.08 0 0 0 4.14,-1.37 q 1.55,-0.72 3.9,-2 a 3.71,3.71 0 0 1 1.8,-0.5 3.4,3.4 0 0 1 2.61,1.19 4,4 0 0 1 1.08,2.77 4.4,4.4 0 0 1 -2.3,3.78 33.36,33.36 0 0 1 -18.24,4.91 29.37,29.37 0 0 1 -15.9,-4.37 z"
         inkscape:connector-curvature="0" />
      <path
         id="path886"
         d="m 2016.85,150.38 q -6.28,-6.28 -6.28,-17.1 a 25.64,25.64 0 0 1 1.46,-8.69 23.1,23.1 0 0 1 4.17,-7.27 19.15,19.15 0 0 1 6.87,-5 24.31,24.31 0 0 1 18.42,-0.11 16,16 0 0 1 6.35,4.82 22.61,22.61 0 0 1 3.6,6.87 28.64,28.64 0 0 1 1.33,8.31 3.9,3.9 0 0 1 -0.72,2.43 2.55,2.55 0 0 1 -2.16,0.95 h -30.18 q 0.18,7.48 4,11.13 a 14.27,14.27 0 0 0 10,3.74 16.32,16.32 0 0 0 6.76,-1.37 34.74,34.74 0 0 0 6.26,-3.72 3.91,3.91 0 0 1 0.88,-0.47 2.55,2.55 0 0 1 2.3,0.27 3.07,3.07 0 0 1 1,1.15 3.22,3.22 0 0 1 0.38,1.53 3.46,3.46 0 0 1 -0.34,1.49 3.72,3.72 0 0 1 -1.06,1.31 24.56,24.56 0 0 1 -16.85,6.17 q -9.9,-0.16 -16.19,-6.44 z M 2044.94,130 a 17.05,17.05 0 0 0 -3.42,-9.66 q -3,-3.81 -8.78,-3.81 a 12.51,12.51 0 0 0 -5.41,1.15 11,11 0 0 0 -4,3.11 15.83,15.83 0 0 0 -2.43,4.3 18.56,18.56 0 0 0 -1.1,4.91 z"
         inkscape:connector-curvature="0" />
      <path
         id="path888"
         d="m 2064.42,154.88 a 4,4 0 0 1 -1.33,-3.18 v -36.3 a 3.81,3.81 0 0 1 1.35,-3.13 5.19,5.19 0 0 1 6.37,0 3.68,3.68 0 0 1 1.33,3 v 3.2 a 12.65,12.65 0 0 1 5.65,-6 18.69,18.69 0 0 1 9,-2.07 19.24,19.24 0 0 1 6.37,1 15.09,15.09 0 0 1 5.18,3.06 13.49,13.49 0 0 1 3.54,5.45 22.4,22.4 0 0 1 1.26,7.82 v 24 a 3.92,3.92 0 0 1 -1.37,3.18 4.87,4.87 0 0 1 -3.22,1.15 4.69,4.69 0 0 1 -3.18,-1.15 4,4 0 0 1 -1.33,-3.18 v -24.08 q 0,-5.41 -2.61,-8.24 a 9.14,9.14 0 0 0 -7.07,-2.84 11.28,11.28 0 0 0 -8.51,3.72 q -3.51,3.72 -3.69,10 v 21.4 a 3.94,3.94 0 0 1 -1.35,3.18 4.78,4.78 0 0 1 -3.2,1.15 4.69,4.69 0 0 1 -3.19,-1.14 z"
         inkscape:connector-curvature="0" />
      <path
         id="path890"
         d="m 2122.33,153.1 q -3.2,-3.47 -3.2,-10.18 v -25.45 h -5.23 a 3.41,3.41 0 0 1 -2.48,-0.83 2.86,2.86 0 0 1 -0.86,-2.14 2.82,2.82 0 0 1 0.83,-2.12 3.39,3.39 0 0 1 2.46,-0.81 h 5.27 l 1.22,-12.48 a 4.5,4.5 0 0 1 1.46,-2.84 4.29,4.29 0 0 1 3,-1.13 3.23,3.23 0 0 1 3.42,3.56 v 12.88 h 8.06 a 3.2,3.2 0 0 1 2.43,0.86 3,3 0 0 1 0.81,2.16 2.79,2.79 0 0 1 -0.81,2.09 3.36,3.36 0 0 1 -2.43,0.79 h -8.06 V 141 q 0,4.32 1.22,6.4 a 4.24,4.24 0 0 0 4,2.07 h 0.45 l 3.2,-0.18 h 0.27 a 3.4,3.4 0 0 1 2.64,1.06 3.53,3.53 0 0 1 1,2.46 3.6,3.6 0 0 1 -0.23,1.31 2.93,2.93 0 0 1 -0.59,1 3,3 0 0 1 -1,0.65 8.26,8.26 0 0 1 -1.19,0.43 9.55,9.55 0 0 1 -1.46,0.25 q -0.88,0.09 -1.6,0.11 h -1.71 -2.22 a 11.24,11.24 0 0 1 -8.67,-3.46 z"
         inkscape:connector-curvature="0" />
      <path
         id="path892"
         d="m 2153.34,150.38 q -6.28,-6.28 -6.28,-17.1 a 25.64,25.64 0 0 1 1.46,-8.69 23.1,23.1 0 0 1 4.17,-7.27 19.15,19.15 0 0 1 6.87,-5 24.31,24.31 0 0 1 18.42,-0.11 16,16 0 0 1 6.35,4.82 22.61,22.61 0 0 1 3.6,6.87 28.64,28.64 0 0 1 1.33,8.31 3.9,3.9 0 0 1 -0.72,2.43 2.55,2.55 0 0 1 -2.16,0.95 h -30.18 q 0.18,7.48 4,11.13 a 14.27,14.27 0 0 0 10,3.74 16.32,16.32 0 0 0 6.8,-1.46 34.74,34.74 0 0 0 6.26,-3.72 3.91,3.91 0 0 1 0.88,-0.47 2.55,2.55 0 0 1 2.3,0.27 3.07,3.07 0 0 1 1,1.15 3.22,3.22 0 0 1 0.38,1.53 3.46,3.46 0 0 1 -0.34,1.49 3.72,3.72 0 0 1 -1.06,1.31 24.56,24.56 0 0 1 -16.85,6.17 q -9.94,-0.07 -16.23,-6.35 z M 2181.43,130 a 17.05,17.05 0 0 0 -3.42,-9.66 q -3,-3.81 -8.78,-3.81 a 12.51,12.51 0 0 0 -5.41,1.15 11,11 0 0 0 -4,3.11 15.83,15.83 0 0 0 -2.43,4.3 18.56,18.56 0 0 0 -1.1,4.91 z"
         inkscape:connector-curvature="0" />
      <path
         id="path894"
         d="m 2201,154.93 a 3.92,3.92 0 0 1 -1.31,-3.18 v -36.4 a 3.73,3.73 0 0 1 1.37,-3.09 5,5 0 0 1 3.22,-1.1 5.85,5.85 0 0 1 1.37,0.16 4.35,4.35 0 0 1 1.22,0.5 4.72,4.72 0 0 1 1,0.79 3.28,3.28 0 0 1 0.68,1.1 4,4 0 0 1 0.25,1.42 l -0.09,5.54 a 13.44,13.44 0 0 1 4.57,-7 12.21,12.21 0 0 1 8,-2.84 3,3 0 0 1 2.52,1.17 4.45,4.45 0 0 1 0.9,2.79 4.16,4.16 0 0 1 -0.81,2.57 2.7,2.7 0 0 1 -2.3,1.08 q -6,0 -9.39,2.79 -3.39,2.79 -3.4,8.51 v 22 a 3.83,3.83 0 0 1 -1.4,3.15 5,5 0 0 1 -3.24,1.13 4.72,4.72 0 0 1 -3.16,-1.09 z"
         inkscape:connector-curvature="0" />
      <path
         id="path896"
         d="m 326.28,136.35 c -15.78,-11 -32.45,-25.43 -46,-42 -4.35,-5.32 -6.66,-7.41 -11.34,-1.19 a 35.11,35.11 0 0 0 -5.34,12.11 c -2.87,11.35 -0.91,23.92 2.76,34.22 1.67,4.69 11.62,22.07 8.12,27.42 -3.5,5.35 -15.68,-2.11 -19.06,-4.06 -13.34,-7.69 -26.08,-19.77 -37.49,-33 A 180.53,180.53 0 0 1 199.46,104 c -5.21,-8.78 -8.24,-33.91 -15,-27.26 -9.51,9.34 4.72,70.19 14.84,94 3.55,8.37 8,22.12 -2.4,18.54 -7.81,-2.69 -16,-8.9 -22.8,-15.27 C 160,161 142.48,144.19 130.48,126.7 c -7.13,-10.39 -13.3,-24.69 -19.65,-36.23 -1.28,-2.33 -5.09,-11.71 -7.25,-12.35 -2.16,-0.64 -3.29,5.14 -3,8.12 2.23,28.14 3.15,43.3 11.64,66.94 2.28,6.34 11.48,24.31 9.43,32.5 -2.05,8.19 -13.36,-2.26 -17,-5.46 -24.22,-21.49 -43.2,-42.44 -64.83,-69.5 -3.31,-4.14 -12.74,-18.2 -17,-15.72 -3.54,2.06 -7.17,17.91 -7.91,22.92 a 54.26,54.26 0 0 0 4.09,30.4 126.48,126.48 0 0 0 6.7,12.58 c 1.71,2.8 5.75,6.15 6.7,9.81 -0.24,-0.92 -7.39,-4.75 -8.86,-6 -3.18,-2.67 -6.33,-5.43 -9.48,-8.23 C 7,150.22 0.5,142.29 0,128.41 -0.39,117.11 3.52,104.96 5.79,94.51 7.79,85.32 10.04,77.3 15.38,71.73 23.72,63.08 27,67.1 34,76.77 c 7.51,10.3 14.12,21.75 21.13,32.85 12.69,20.1 40.92,46.91 41.55,43.33 2.14,-12.08 -2.33,-14.69 -4.51,-26.85 -2.56,-14.29 -3.61,-22.07 -3.57,-37.45 0,-11.24 -1.08,-60.94 13.34,-48.32 7,6.11 11.1,24 15,34.36 4.61,12.23 9.34,19.12 15.13,30.06 11.35,21.42 45.5,61 47.13,54.73 2.15,-8.29 -4.42,-24.39 -5.68,-33.09 -1.66,-11.36 -4.25,-25.58 -3.86,-37.21 0.54,-16.15 -0.41,-39.33 6.34,-52.68 7.21,-14.24 13.77,5.42 16.91,15 5.32,16.21 10.43,32.35 17.53,46.9 A 119.92,119.92 0 0 0 239,135.67 c 2.5,2.2 6,5.64 8.83,6.69 3.15,1.18 3.08,2 3.51,-3 0.38,-4.46 -1.33,-9.54 -1.81,-13.93 a 71.26,71.26 0 0 1 0.12,-15.89 c 1.79,-15.74 7.52,-33.12 17,-40.33 8.4,-6.36 14.84,5.92 20.33,14.66 11.51,18.32 26.65,30.68 40.94,41.65 0,0 6.46,5.28 7.17,4.43 1.32,-1.57 -2.69,-9.33 -3.5,-11.81 -5.78,-17.5 1.4,-28 11,-35.87 4.22,-3.46 8.62,-7.25 13.3,-3.94 3,2.13 5.83,7 8.32,10.3 7.62,10.17 15.13,18.17 24.35,24.69 6,4.21 12,8.31 18,12.37 4.35,2.94 8.62,6.67 6.61,-4 -1.35,-7.19 -5.59,-11.71 -2,-19.51 2.34,-5.1 7.79,-8.5 11,-11.71 6,-6 12.08,-12 18.31,-17.44 4.69,-4.11 12,-12.34 17.63,-12.23 7.38,0.14 2.93,10.44 0.57,15.46 -2.84,6 -5.6,11.62 -5.45,19.46 0.33,17.45 7.18,27.45 15.46,37.15 4,4.66 8.21,8.81 12.36,13.09 0.74,0.76 6.75,8.48 7.72,7.66 1.12,-1 -4.09,-14.34 -4.29,-15.09 a 41.78,41.78 0 0 1 -0.85,-19.87 c 3,-14.32 12.41,-25.28 19.34,-34.73 8.54,-11.67 17.42,-22.69 26,-34.38 3.85,-5.27 7.55,-10.77 11.3,-16.21 2.3,-3.34 5.56,-10.09 8.82,-11.26 -0.28,0.1 -7.42,16.26 -9,18.78 -4.92,8.09 -10,15.88 -15.23,23.52 C 515.52,78.19 504,91.83 497,109.2 c -8.2,20.59 0,39.3 8,56 3.94,8.21 8.09,16.13 11.85,24.56 2.22,5 9.4,17.08 8.88,23.59 -3.47,-1.41 -7,-9.46 -9.75,-13.08 -3.23,-4.3 -6.6,-8.34 -9.85,-12.61 C 501,181 495.7,174.6 490.31,168.38 477.2,153.21 462.17,140.14 450.69,121.97 c -2.71,-4.29 -6.44,-8.22 -8,-14 -1.38,-5 -0.42,-12.73 -1.89,-17.21 -1.6,-4.87 -4.87,-0.55 -7.87,1.8 -3.23,2.53 -7,5.22 -9.48,9.42 -6.62,11.09 -0.16,21.66 4.82,30.64 1.3,2.35 15.44,21.16 13.74,22.89 -1.7,1.73 -8.75,-3.05 -10.76,-4.24 -4.15,-2.45 -8.41,-4.72 -12.43,-7.66 -5.51,-4 -11.11,-7.7 -16.63,-11.7 -9.59,-6.95 -19.25,-13.56 -28.38,-22 -9.13,-8.44 -23.81,-30.81 -33.26,-9.47 -7.21,16.31 16.44,41 13.16,46.28 -3.47,5.58 -27.43,-10.37 -27.43,-10.37"
         class="cls-1"
         inkscape:connector-curvature="0"
         style="fill:#ffffff" />
      <path
         id="path898"
         d="m 326.91,114.53 c -8.84,-7.71 -16.24,-16.77 -19.7,-20.37 -1.87,-2 -4.28,-2.43 -6.15,-0.88 a 22.18,22.18 0 0 0 -5,7.27 40.47,40.47 0 0 0 -3.55,19.53 62.53,62.53 0 0 0 5.26,21.31 c 1.44,3.1 2.76,6.36 4.18,9.49 1.42,3.13 3,6.49 3.62,10.21 0.54,3.32 -1.41,3.83 -3.28,4 a 19.09,19.09 0 0 1 -7.1,-0.53 49.45,49.45 0 0 1 -10.82,-4.72 c -1.23,-0.69 -2.43,-1.46 -3.64,-2.24 -0.31,-0.2 -7.58,-5.1 -9.75,-6.91 -2.43,-2 -4.85,-4.09 -7.25,-6.21 -4.58,-4 -9.2,-8.15 -13.54,-12.71 A 172,172 0 0 1 226.4,100 c -2,-3.41 -4,-6.88 -5.85,-10.44 a 85.47,85.47 0 0 0 -5.86,-9.67 c -3.8,8.1 -4.91,19.32 -4.51,29.06 a 105.69,105.69 0 0 0 5.75,30.05 293.87,293.87 0 0 0 11.07,27.56 46.76,46.76 0 0 1 2.41,5.37 c 0.42,1.27 1.37,5.71 0,7.66 -1.64,2.34 -6.35,0.91 -8,0.33 -3.75,-1.3 -7.51,-3.91 -11,-6.2 -3.49,-2.29 -17.74,-14.83 -21.41,-18.61 -3.67,-3.78 -16.13,-17.67 -17.34,-19.25 -2.28,-3 -4.62,-5.83 -7,-8.71 A 188.74,188.74 0 0 1 151.45,108 c -4.16,-6.69 -8,-13.74 -12.1,-20.55 -1,-1.63 -1.94,-3.26 -3,-4.8 -0.59,-0.87 -2.51,-4.44 -3.32,-4.37 -0.81,0.07 -1.41,3.84 -1.65,4.85 a 41.61,41.61 0 0 0 -1,6.67 136.17,136.17 0 0 0 -0.07,16 c 0.11,2.63 1.13,12.9 1.82,14.68 2.75,17 9,31.94 14.75,47 q 2.21,5.8 4.36,11.64 c 1.31,3.53 2.33,6.24 2.49,10.42 0.06,1.67 -3,4.52 -4.58,4.26 -2.64,-0.44 -6.68,-3.2 -9,-4.87 -5.94,-4.29 -11.34,-10.23 -16.88,-15.51 C 123.41,173 113.09,162.2 112.08,161.08 108.27,156.82 96,143 95,141.83 c -2.21,-2.63 -4.51,-5.17 -6.63,-8 -3.8,-5 -7.95,-9.45 -11.73,-14.52 C 69.06,109.17 61.91,98 53.35,89.61 c -0.68,-0.66 -1.28,-1.57 -2.1,-0.91 -0.82,0.66 -1.76,3.64 -2.33,4.84 a 55.91,55.91 0 0 0 -3.75,10.31 c -1.81,7.09 -1.86,14.58 -1.83,22.06 0.06,14.42 6.57,28 12.23,39.06 1.52,3 3.11,5.87 4.68,8.78 q 1.15,2.13 2.34,4.2 a 15.34,15.34 0 0 1 1.18,2 c 0.45,1.17 0.58,0.9 -0.25,0.85 -2.23,-0.14 -4.68,-2.5 -6.54,-4.09 -2.45,-2.1 -4.87,-4.33 -7.19,-6.73 -1.84,-1.91 -3.59,-4 -5.35,-6.07 A 52.75,52.75 0 0 1 38.8,157 75.68,75.68 0 0 1 31.11,138.43 68.33,68.33 0 0 1 28.43,116.81 c 0.16,-3.22 0.59,-6.48 0.88,-9.69 0.36,-4 1.2,-10.48 1.8,-14.43 a 136.38,136.38 0 0 1 4.22,-20.28 c 0.9,-2.87 6.87,-21.2 10.09,-21.84 4.09,-0.8 10.18,8.32 10.78,9.29 1,1.57 1.94,3.13 2.9,4.71 3.82,6.25 7.06,13.22 10.68,19.71 3.62,6.49 7.15,12.88 10.89,19.07 2,3.36 4.2,6.54 6.36,9.7 1.07,1.57 2.15,3.12 3.24,4.66 0.83,1.18 5.57,7.53 6.88,9.22 1.6,2.06 3.21,4.13 4.88,6.06 3,3.54 12.17,14.06 12.8,14.75 1.47,1.61 10.8,10.56 14.13,13 a 19.82,19.82 0 0 0 -0.75,-6.09 q -1.06,-3.71 -2.08,-7.43 c -1.27,-4.64 -2.46,-9.34 -3.65,-14 A 174.27,174.27 0 0 1 117.72,103.92 274.87,274.87 0 0 1 117,74 c 0.32,-9.87 1.24,-20 3.68,-29.26 0.37,-1.42 1.78,-10 7,-10.54 3.76,-0.39 7.8,5.35 8.87,7.93 q 5.11,12.32 10.11,24.75 c 3.41,8.48 6.86,17.2 10.81,25.17 a 240.48,240.48 0 0 0 13.23,23 164.22,164.22 0 0 0 16.61,21.49 c 5.66,6.28 11.56,12.45 18.22,16.17 0.65,-5 -1.82,-10.7 -3,-15.27 a 151.27,151.27 0 0 1 -3.21,-16.76 174.34,174.34 0 0 1 -1.05,-34.92 203.89,203.89 0 0 1 4.43,-32.4 c 0.56,-2.44 3.7,-16.86 9.57,-16.14 5.69,0.69 11.77,21.74 13.54,26.69 1.85,5.18 3.49,10.72 5.62,15.66 3.88,9 7.59,18.11 12.41,26.18 a 121.2,121.2 0 0 0 16.51,21.07 c 3.05,3.25 6.31,6 9.52,8.83 1.56,1.37 8.52,6.17 10.36,6.9 1.31,0.52 1.32,-0.16 1.45,-2 a 22,22 0 0 0 -0.14,-3.92 c -0.28,-2.47 -0.69,-4.93 -1.15,-7.34 A 57.87,57.87 0 0 1 279.67,112.86 81.75,81.75 0 0 1 283,96.37 c 0.64,-2.06 1.15,-4.32 2,-6.26 1,-2.53 2.36,-4.9 3.58,-7.25 2.25,-4.31 9.1,-12.86 14.08,-12.13 5.54,0.81 12.49,11.91 15.76,15.39 3.69,3.92 15.84,17.91 19.3,21.32 9.5,9.34 39.12,33.66 32.41,22.75 -1.4,-2.28 -5.64,-7.59 -7.29,-13 -1.59,-5.23 -2.07,-12.23 -0.3,-17.65 a 36.17,36.17 0 0 1 6.71,-12 c 3.06,-3.28 3,-3.51 6.3,-6 3.76,-2.86 6.58,-3.64 10.15,-1.31 2.71,1.76 14.14,15.88 16.05,18.23 2.63,3.23 22.34,24.63 28.39,30.21 2.33,2.15 15.53,14.12 20.24,16.29 1.36,0.63 -0.54,-3.65 -1.43,-5.09 -2.65,-4.26 -7.9,-14.46 -8.67,-16.91 -1.09,-3.47 -2.27,-8.57 -1.78,-12.39 1,-7.85 6.09,-12.53 10.32,-16.44 a 295.15,295.15 0 0 1 30.18,-24.8 38.07,38.07 0 0 1 9.4,-5.09 c 3.2,-1.16 5.74,4.57 3.69,8.44 -2.05,3.87 -4.15,8 -6.12,12.21 -3.73,7.91 -6.65,16.35 -5.18,26.29 1.45,9.76 6.33,17.67 10.71,24.84 4.65,7.61 9.73,14.38 14.89,21.21 0.89,1.18 7.46,10.81 8.15,10.11 0.69,-0.7 -0.7,-5.35 -0.91,-6.21 -0.59,-2.41 -1.29,-4.71 -2,-7 -2.89,-9 -4.41,-19.31 -2.92,-29.15 1.49,-9.84 5.49,-19.09 9.66,-26.76 4.62,-8.51 9.49,-16.64 14.51,-24.65 9.57,-15.28 19.47,-30 28.74,-45.72 4.56,-7.72 8.89,-15.84 13.59,-23.37 0.8,-1.28 2.35,-3.9 3.5,-4.39 0.64,-0.27 0.49,0.37 0.29,1.25 a 26.69,26.69 0 0 1 -1.51,3.94 c -1.75,4.33 -3.41,8.86 -5.42,12.93 -8.25,16.71 -17.3,32.76 -26.46,48.38 -4.66,7.94 -9.15,16.15 -13.44,24.54 -4,7.79 -8.35,16.34 -10.64,25.57 a 74.64,74.64 0 0 0 -1.2,29.57 c 1.55,9.9 5.15,19.2 8.44,28 3.43,9.23 7.36,18 11,27.09 q 5.58,13.82 10.43,28.24 c 0.79,2.32 1.61,4.63 2.31,7 0.62,2.12 1.5,4.41 1.35,6.71 -1.79,-0.87 -3,-4 -4.2,-6.12 q -2.16,-3.78 -4.18,-7.72 c -2.72,-5.32 -5.44,-10.61 -8.31,-15.76 -2.7,-4.85 -5.46,-9.62 -8.33,-14.25 -1.52,-2.46 -3.07,-4.89 -4.61,-7.31 -1.1,-1.73 -5.91,-8.42 -6.84,-9.68 -1.26,-1.71 -2.49,-3.47 -3.74,-5.22 -2.32,-3.26 -4.58,-6.64 -7,-9.82 -5.06,-6.78 -10.47,-13 -15.7,-19.52 a 179,179 0 0 1 -14.87,-20.6 c -4.17,-7 -7.91,-14.62 -8.23,-24.24 -0.17,-5.08 0.84,-9.51 1.29,-14.47 0.11,-1.21 0.39,-1.81 -0.48,-1.72 -0.65,0.07 -1.72,1.16 -2.31,1.59 -1.52,1.12 -3,2.33 -4.48,3.58 -5.26,4.48 -10.9,9.12 -14.07,17.08 -3.17,7.96 2.46,15.8 6,22.21 4.23,7.7 10.55,15.54 13.85,22.44 1,2.13 3.26,6.92 3.68,7.6 5.39,8.78 -11.19,-0.48 -15.07,-2.52 A 127,127 0 0 1 439.84,149 c -13.4,-9 -31.91,-28.81 -36.75,-34.15 -3.83,-4.22 -13.71,-14.46 -15.34,-16.41 A 22.58,22.58 0 0 0 382.92,94 c -1.4,-0.95 -3.5,-1.77 -5.42,-0.69 -2.11,1.19 -3,2.52 -4.7,4.71 -6.57,8.4 -0.88,17.69 4.34,26.13 1.52,2.47 3.27,4.78 6.27,9.89 2.64,4.5 3.42,8.3 2.63,10.89 -0.49,1.6 -4.53,1.47 -5.69,1.4 -12.54,-0.77 -22.53,-8.51 -27.64,-11.53 -12.37,-7.3 -19.56,-14.78 -25.8,-20.23"
         inkscape:connector-curvature="0" />
    </g>
  </g>
</svg>
