<svg id="Layer_1" data-name="Layer 1" xmlns="http://www.w3.org/2000/svg" viewBox="0 0 2226.43 243.32"><defs><style>.cls-1{fill:#fff;}</style></defs><title>blue_vert_dcc_text_long</title><path d="M551.05,154.5a4.67,4.67,0,0,1-1.51-3.51V96.44a4.75,4.75,0,0,1,1.51-3.54,5,5,0,0,1,3.63-1.46h15.45q17.07,0,25.9,8.33t8.83,24.14q0,15.54-8.92,23.78t-25.23,8.24h-16A5.06,5.06,0,0,1,551.05,154.5Zm20.25-6.67a34.55,34.55,0,0,0,10.88-1.49,15.62,15.62,0,0,0,7.09-4.59,18.82,18.82,0,0,0,3.83-7.48,41.15,41.15,0,0,0,1.17-10.54q0-13.06-5.88-18.63t-18.54-5.56H559.77v48.29Z"/><path d="M657.74,140.22H627.43l-5,12.84a4.76,4.76,0,0,1-4.64,3.29,5.81,5.81,0,0,1-2.7-.68,4.08,4.08,0,0,1-2.39-3.74,4.37,4.37,0,0,1,.36-1.71l21.13-52.66q1.58-4,3.54-5.27A8.54,8.54,0,0,1,642.61,91a8.45,8.45,0,0,1,4.8,1.31q2,1.31,3.54,5.27l21.13,52.66a4.72,4.72,0,0,1,.36,1.76,3.75,3.75,0,0,1-.74,2.27,4.89,4.89,0,0,1-1.89,1.55,5.7,5.7,0,0,1-2.46.54,5.56,5.56,0,0,1-4.64-3.29Zm-15.14-39.37-12.39,32.07h24.73Z"/><path d="M684.14,154.88a4,4,0,0,1-1.4-3.27V97.88a6.47,6.47,0,0,1,1.62-4.64,5.36,5.36,0,0,1,4.05-1.71,7.84,7.84,0,0,1,3.51.9A8.13,8.13,0,0,1,695,95l31.89,46V95.94a4.07,4.07,0,0,1,1.4-3.27,4.9,4.9,0,0,1,3.29-1.19,5,5,0,0,1,3.29,1.17,4.06,4.06,0,0,1,1.4,3.29v53.74a6.22,6.22,0,0,1-1.73,4.64,5.77,5.77,0,0,1-4.21,1.71,7.58,7.58,0,0,1-3.38-.9,7.84,7.84,0,0,1-2.93-2.48L692.16,107v44.64a4,4,0,0,1-1.42,3.24,5.27,5.27,0,0,1-6.6,0Z"/><path d="M754.28,154.68a4.55,4.55,0,0,1-1.49-3.6V96.39a4.57,4.57,0,0,1,1.51-3.65,5.35,5.35,0,0,1,3.63-1.31,5.3,5.3,0,0,1,3.58,1.31A4.57,4.57,0,0,1,763,96.39v54.69a4.47,4.47,0,0,1-1.53,3.63,5.5,5.5,0,0,1-3.65,1.28A5.21,5.21,0,0,1,754.28,154.68Z"/><path d="M791.24,152.88a26.83,26.83,0,0,1-10.65-11.67,39.93,39.93,0,0,1-3.65-17.61A39.93,39.93,0,0,1,780.58,106a26.84,26.84,0,0,1,10.65-11.67,32,32,0,0,1,16.6-4.14q14.46,0,22.64,9.05t8.18,24.37q0,15.32-8.18,24.37T807.84,157A32,32,0,0,1,791.24,152.88Zm31.42-10.79q5.18-6.78,5.18-18.49t-5.18-18.47q-5.18-6.8-14.82-6.8T793,105.13q-5.18,6.8-5.18,18.47t5.2,18.49q5.2,6.78,14.84,6.78T822.66,142.09Z"/><path d="M846.69,130a3.24,3.24,0,0,1-1.1-2.52,3.36,3.36,0,0,1,1.1-2.59,4,4,0,0,1,2.82-1h18.92a3.92,3.92,0,0,1,2.79,1,3.39,3.39,0,0,1,1.08,2.59,3.24,3.24,0,0,1-1.1,2.52,4,4,0,0,1-2.77,1H849.5A4.05,4.05,0,0,1,846.69,130Z"/><path d="M893.47,152.7A27.9,27.9,0,0,1,883,140.85a38.93,38.93,0,0,1-3.6-17,38.45,38.45,0,0,1,3.78-17.34,28.71,28.71,0,0,1,10.88-12,30.63,30.63,0,0,1,16.33-4.35,34,34,0,0,1,16.35,4.14,4.54,4.54,0,0,1,1.8,1.55,3.61,3.61,0,0,1,.59,2,4.06,4.06,0,0,1-.54,2,4.27,4.27,0,0,1-1.46,1.55,3.6,3.6,0,0,1-2,.59,4.28,4.28,0,0,1-.74-.07,2.71,2.71,0,0,1-.74-.25l-1.4-.7a21.1,21.1,0,0,0-2.07-.92q-.86-.31-2.34-.79a18.43,18.43,0,0,0-3.29-.7,31,31,0,0,0-3.83-.23,20.68,20.68,0,0,0-9.1,1.91,16.84,16.84,0,0,0-6.44,5.34,24.69,24.69,0,0,0-3.74,8,41.1,41.1,0,0,0,0,20.2,23.91,23.91,0,0,0,3.78,8A16.75,16.75,0,0,0,901.8,147a22,22,0,0,0,9.33,1.87,21.56,21.56,0,0,0,5.29-.65,24.08,24.08,0,0,0,4.14-1.37q1.55-.72,3.9-2a3.71,3.71,0,0,1,1.8-.5,3.4,3.4,0,0,1,2.61,1.19,4,4,0,0,1,1.08,2.77,4.4,4.4,0,0,1-2.3,3.78A33.36,33.36,0,0,1,909.42,157,29.37,29.37,0,0,1,893.47,152.7Z"/><path d="M954.53,152.88a26.83,26.83,0,0,1-10.65-11.67,39.93,39.93,0,0,1-3.65-17.61A39.93,39.93,0,0,1,943.88,106a26.84,26.84,0,0,1,10.65-11.67,32,32,0,0,1,16.6-4.14q14.46,0,22.64,9.05t8.18,24.37q0,15.32-8.18,24.37T971.13,157A32,32,0,0,1,954.53,152.88Zm31.42-10.79q5.18-6.78,5.18-18.49t-5.18-18.47q-5.18-6.8-14.82-6.8t-14.87,6.8q-5.18,6.8-5.18,18.47t5.2,18.49q5.2,6.78,14.84,6.78T985.95,142.09Z"/><path d="M1016.56,154.5A4.67,4.67,0,0,1,1015,151V96.44a4.75,4.75,0,0,1,1.51-3.54,5,5,0,0,1,3.63-1.46h15.45q17.07,0,25.9,8.33t8.83,24.14q0,15.54-8.92,23.78t-25.23,8.24h-16A5.06,5.06,0,0,1,1016.56,154.5Zm20.25-6.67a34.55,34.55,0,0,0,10.88-1.49,15.62,15.62,0,0,0,7.09-4.59,18.82,18.82,0,0,0,3.83-7.48,41.15,41.15,0,0,0,1.17-10.54q0-13.06-5.88-18.63t-18.54-5.56h-10.09v48.29Z"/><path d="M1085,154.52a4.68,4.68,0,0,1-1.55-3.45V96.44a4.87,4.87,0,0,1,1.42-3.47,4.59,4.59,0,0,1,3.45-1.49h33.15a3.58,3.58,0,0,1,2.88,1.22,4.24,4.24,0,0,1,1,2.84,4.33,4.33,0,0,1-1,2.86,3.55,3.55,0,0,1-2.88,1.24H1093.7V119h26.17a3.76,3.76,0,0,1,3,1.17,4.22,4.22,0,0,1,0,5.56,3.74,3.74,0,0,1-3,1.19H1093.7v21h28.88a3.61,3.61,0,0,1,2.93,1.24,4.33,4.33,0,0,1,1,2.86,4.18,4.18,0,0,1-1,2.79,3.64,3.64,0,0,1-2.93,1.22h-34.05A4.89,4.89,0,0,1,1085,154.52Z"/><path d="M1167.19,154.5a4.67,4.67,0,0,1-1.51-3.51V96.44a4.75,4.75,0,0,1,1.51-3.54,5,5,0,0,1,3.63-1.46h15.45q17.07,0,25.9,8.33t8.83,24.14q0,15.54-8.92,23.78t-25.23,8.24h-16A5.06,5.06,0,0,1,1167.19,154.5Zm20.25-6.67a34.55,34.55,0,0,0,10.88-1.49,15.62,15.62,0,0,0,7.09-4.59,18.82,18.82,0,0,0,3.83-7.48,41.15,41.15,0,0,0,1.17-10.54q0-13.06-5.88-18.63T1186,99.54h-10.09v48.29Z"/><path d="M1233.75,153.37q-4.42-3.38-4.41-9.59a17.34,17.34,0,0,1,.56-4.66,11.88,11.88,0,0,1,1.55-3.47,8,8,0,0,1,2.84-2.48,20.38,20.38,0,0,1,3.94-1.64,29.77,29.77,0,0,1,5.41-1q3.31-.34,6.67-.45t8.22-.11v-4.41q0-9.1-9.1-9.1a25.6,25.6,0,0,0-5.45.61,31.42,31.42,0,0,0-4.21,1.15q-1.42.54-3.76,1.53a2.9,2.9,0,0,1-1.13.23,2.68,2.68,0,0,1-.86-.14,3,3,0,0,1-.77-.38,3.4,3.4,0,0,1-.65-.59,3.9,3.9,0,0,1-.81-1.51,3,3,0,0,1-.11-.81,2.64,2.64,0,0,1,.36-1.37,2.76,2.76,0,0,1,1.13-1,34.3,34.3,0,0,1,16.58-3.78q8.29,0,13.06,3.87t4.78,12.07v25.41a3.94,3.94,0,0,1-1.35,3.18,4.72,4.72,0,0,1-3.15,1.15,4.81,4.81,0,0,1-2.14-.47,4.11,4.11,0,0,1-1.62-1.44,4,4,0,0,1-.65-2.32v-3.33q-4,8.24-13.47,8.24Q1238.16,156.75,1233.75,153.37Zm21-6.62a14.62,14.62,0,0,0,3.74-10.32v-1.26q-4.32,0-7.21.11t-5.34.45a17.8,17.8,0,0,0-3.85.88,7.4,7.4,0,0,0-2.41,1.49,4.77,4.77,0,0,0-1.37,2.23,11.54,11.54,0,0,0-.36,3.09q0,3.78,2.21,5.59a9.12,9.12,0,0,0,5.95,1.8A11.46,11.46,0,0,0,1254.74,146.75Z"/><path d="M1286.9,153.1q-3.2-3.47-3.2-10.18V117.47h-5.23a3.41,3.41,0,0,1-2.48-.83,2.86,2.86,0,0,1-.86-2.14,2.82,2.82,0,0,1,.83-2.12,3.39,3.39,0,0,1,2.46-.81h5.27l1.22-12.48a4.5,4.5,0,0,1,1.46-2.84,4.29,4.29,0,0,1,3-1.13,3.23,3.23,0,0,1,3.42,3.56v12.88h8.06a3.2,3.2,0,0,1,2.43.86,3,3,0,0,1,.81,2.16,2.79,2.79,0,0,1-.81,2.09,3.36,3.36,0,0,1-2.43.79h-8.06V141q0,4.32,1.22,6.4a4.24,4.24,0,0,0,4,2.07h.45l3.2-.18h.27a3.4,3.4,0,0,1,2.64,1.06,3.53,3.53,0,0,1,1,2.46,3.6,3.6,0,0,1-.23,1.31,2.93,2.93,0,0,1-.59,1,3,3,0,0,1-1,.65,8.26,8.26,0,0,1-1.19.43,9.55,9.55,0,0,1-1.46.25q-.88.09-1.6.11l-1.71,0h-2.16A11.24,11.24,0,0,1,1286.9,153.1Z"/><path d="M1315.28,153.37q-4.42-3.38-4.41-9.59a17.34,17.34,0,0,1,.56-4.66,11.88,11.88,0,0,1,1.55-3.47,8,8,0,0,1,2.84-2.48,20.38,20.38,0,0,1,3.94-1.64,29.77,29.77,0,0,1,5.41-1q3.31-.34,6.67-.45t8.22-.11v-4.41q0-9.1-9.1-9.1a25.6,25.6,0,0,0-5.45.61,31.42,31.42,0,0,0-4.21,1.15q-1.42.54-3.76,1.53a2.9,2.9,0,0,1-1.13.23,2.68,2.68,0,0,1-.86-.14,3,3,0,0,1-.77-.38,3.4,3.4,0,0,1-.65-.59,3.9,3.9,0,0,1-.81-1.51,3,3,0,0,1-.11-.81,2.64,2.64,0,0,1,.36-1.37,2.76,2.76,0,0,1,1.13-1,34.3,34.3,0,0,1,16.58-3.78q8.29,0,13.06,3.87t4.78,12.07v25.41a3.94,3.94,0,0,1-1.35,3.18,4.72,4.72,0,0,1-3.15,1.15,4.81,4.81,0,0,1-2.14-.47,4.11,4.11,0,0,1-1.62-1.44,4,4,0,0,1-.65-2.32v-3.33q-4,8.24-13.47,8.24Q1319.7,156.75,1315.28,153.37Zm21-6.62a14.62,14.62,0,0,0,3.74-10.32v-1.26q-4.32,0-7.21.11t-5.34.45a17.8,17.8,0,0,0-3.85.88,7.4,7.4,0,0,0-2.41,1.49,4.77,4.77,0,0,0-1.37,2.23,11.54,11.54,0,0,0-.36,3.09q0,3.78,2.21,5.59a9.12,9.12,0,0,0,5.95,1.8A11.46,11.46,0,0,0,1336.27,146.75Z"/><path d="M1400.78,152.7a27.9,27.9,0,0,1-10.5-11.85,38.93,38.93,0,0,1-3.6-17,38.45,38.45,0,0,1,3.78-17.34,28.71,28.71,0,0,1,10.88-12,30.63,30.63,0,0,1,16.33-4.35A34,34,0,0,1,1434,94.32a4.54,4.54,0,0,1,1.8,1.55,3.61,3.61,0,0,1,.59,2,4.06,4.06,0,0,1-.54,2,4.27,4.27,0,0,1-1.46,1.55,3.6,3.6,0,0,1-2,.59,4.28,4.28,0,0,1-.74-.07,2.71,2.71,0,0,1-.74-.25l-1.4-.7a21.1,21.1,0,0,0-2.07-.92q-.86-.31-2.34-.79a18.43,18.43,0,0,0-3.29-.7,31,31,0,0,0-3.83-.23,20.68,20.68,0,0,0-9.1,1.91,16.84,16.84,0,0,0-6.44,5.34,24.69,24.69,0,0,0-3.74,8,41.1,41.1,0,0,0,0,20.2,23.91,23.91,0,0,0,3.78,8,16.75,16.75,0,0,0,6.58,5.27,22,22,0,0,0,9.33,1.87,21.56,21.56,0,0,0,5.29-.65,24.08,24.08,0,0,0,4.14-1.37q1.55-.72,3.9-2a3.71,3.71,0,0,1,1.8-.5,3.4,3.4,0,0,1,2.61,1.19,4,4,0,0,1,1.08,2.77,4.4,4.4,0,0,1-2.3,3.78,33.36,33.36,0,0,1-18.24,4.91A29.37,29.37,0,0,1,1400.78,152.7Z"/><path d="M1459.07,154.88a19.43,19.43,0,0,1-7.21-5.07,22.68,22.68,0,0,1-4.28-7.34,26.08,26.08,0,0,1-1.49-8.87,26.41,26.41,0,0,1,1.49-8.94,22.45,22.45,0,0,1,4.3-7.37,19.48,19.48,0,0,1,7.21-5,25.17,25.17,0,0,1,9.84-1.85,23.65,23.65,0,0,1,12.41,3.15,20.06,20.06,0,0,1,7.84,8.36,25.87,25.87,0,0,1,2.59,11.69,26.14,26.14,0,0,1-1.49,8.85,22.62,22.62,0,0,1-4.28,7.37,19.45,19.45,0,0,1-7.21,5.07,27,27,0,0,1-19.73,0Zm20.09-8.85q3.65-4.5,3.65-12.43t-3.69-12.46a13.67,13.67,0,0,0-20.38,0q-3.67,4.55-3.67,12.48t3.69,12.43a12.4,12.4,0,0,0,10.18,4.55Q1475.51,150.54,1479.16,146Z"/><path d="M1511.91,154.88a19.43,19.43,0,0,1-7.21-5.07,22.68,22.68,0,0,1-4.28-7.34,26.08,26.08,0,0,1-1.49-8.87,26.41,26.41,0,0,1,1.49-8.94,22.45,22.45,0,0,1,4.3-7.37,19.48,19.48,0,0,1,7.21-5,25.17,25.17,0,0,1,9.84-1.85,23.65,23.65,0,0,1,12.41,3.15,20.06,20.06,0,0,1,7.84,8.36,25.87,25.87,0,0,1,2.59,11.69,26.14,26.14,0,0,1-1.49,8.85,22.62,22.62,0,0,1-4.28,7.37,19.45,19.45,0,0,1-7.21,5.07,27,27,0,0,1-19.73,0ZM1532,146q3.65-4.5,3.65-12.43T1532,121.14a13.67,13.67,0,0,0-20.38,0q-3.67,4.55-3.67,12.48t3.69,12.43a12.4,12.4,0,0,0,10.18,4.55Q1528.35,150.54,1532,146Z"/><path d="M1556,154.93a3.92,3.92,0,0,1-1.31-3.18v-36.4a3.73,3.73,0,0,1,1.37-3.09,5,5,0,0,1,3.22-1.1,5.85,5.85,0,0,1,1.37.16,4.35,4.35,0,0,1,1.22.5,4.72,4.72,0,0,1,1,.79,3.28,3.28,0,0,1,.68,1.1,4,4,0,0,1,.25,1.42l-.09,5.54a13.44,13.44,0,0,1,4.57-7,12.21,12.21,0,0,1,8-2.84,3,3,0,0,1,2.52,1.17,4.45,4.45,0,0,1,.9,2.79,4.16,4.16,0,0,1-.81,2.57,2.7,2.7,0,0,1-2.3,1.08q-6,0-9.39,2.79t-3.4,8.51v22a3.83,3.83,0,0,1-1.4,3.15,5,5,0,0,1-3.24,1.13A4.72,4.72,0,0,1,1556,154.93Z"/><path d="M1596.19,154.84a16.93,16.93,0,0,1-6.1-5.18,24.78,24.78,0,0,1-3.63-7.46,30.79,30.79,0,0,1-1.26-8.92q0-10.09,5.41-16.49t14.68-6.4q10.18,0,14.55,7.88V95.76a3.81,3.81,0,0,1,1.35-3.13,4.9,4.9,0,0,1,3.2-1.1,4.81,4.81,0,0,1,3.18,1.1,3.84,3.84,0,0,1,1.33,3.13v55.9a3.94,3.94,0,0,1-1.35,3.18,4.78,4.78,0,0,1-3.2,1.15,4.67,4.67,0,0,1-3.33-1.1,4.21,4.21,0,0,1-1.17-3.22v-3.2q-4.46,8.29-15.23,8.29A18.21,18.21,0,0,1,1596.19,154.84Zm16.64-5.5a9.58,9.58,0,0,0,4.12-3.58,16.72,16.72,0,0,0,2.16-5.36,32.14,32.14,0,0,0,.68-7,28.33,28.33,0,0,0-.43-5,18.63,18.63,0,0,0-1.44-4.57,14.75,14.75,0,0,0-2.48-3.78,10.47,10.47,0,0,0-3.69-2.55,12.63,12.63,0,0,0-5-.95,11.37,11.37,0,0,0-5.95,1.51,10.46,10.46,0,0,0-3.9,4,20.93,20.93,0,0,0-2,5.36,26.42,26.42,0,0,0-.65,5.95,27.56,27.56,0,0,0,.61,5.83,23.29,23.29,0,0,0,1.91,5.45,10.45,10.45,0,0,0,3.81,4.23,10.94,10.94,0,0,0,5.88,1.64A14.89,14.89,0,0,0,1612.83,149.34Z"/><path d="M1642.81,99.79a5,5,0,0,1-1.58-3.85,5.08,5.08,0,0,1,1.58-3.87,5.79,5.79,0,0,1,4.14-1.49,5.58,5.58,0,0,1,4.05,1.49,5.16,5.16,0,0,1,1.53,3.87,5,5,0,0,1-1.55,3.85,5.7,5.7,0,0,1-4.08,1.46A5.78,5.78,0,0,1,1642.81,99.79Zm.86,55.07a4.3,4.3,0,0,1-1.31-3.38V115.67a4.22,4.22,0,0,1,1.37-3.33,4.7,4.7,0,0,1,3.22-1.22,4.56,4.56,0,0,1,3.15,1.22,4.26,4.26,0,0,1,1.35,3.33v35.81a4.22,4.22,0,0,1-1.37,3.33,4.7,4.7,0,0,1-3.22,1.22A4.62,4.62,0,0,1,1643.67,154.86Z"/><path d="M1665.58,154.88a4,4,0,0,1-1.33-3.18V115.4a3.81,3.81,0,0,1,1.35-3.13,5.19,5.19,0,0,1,6.37,0,3.68,3.68,0,0,1,1.33,3v3.2a12.65,12.65,0,0,1,5.65-6,18.69,18.69,0,0,1,9-2.07,19.24,19.24,0,0,1,6.37,1,15.09,15.09,0,0,1,5.18,3.06,13.49,13.49,0,0,1,3.54,5.45,22.4,22.4,0,0,1,1.26,7.82v24a3.92,3.92,0,0,1-1.37,3.18,4.87,4.87,0,0,1-3.22,1.15,4.69,4.69,0,0,1-3.18-1.15,4,4,0,0,1-1.33-3.18V127.65q0-5.41-2.61-8.24a9.14,9.14,0,0,0-7.07-2.84,11.28,11.28,0,0,0-8.51,3.72q-3.51,3.72-3.69,10v21.4a3.94,3.94,0,0,1-1.35,3.18,4.78,4.78,0,0,1-3.2,1.15A4.69,4.69,0,0,1,1665.58,154.88Z"/><path d="M1717.91,153.37q-4.42-3.38-4.41-9.59a17.34,17.34,0,0,1,.56-4.66,11.88,11.88,0,0,1,1.55-3.47,8,8,0,0,1,2.84-2.48,20.38,20.38,0,0,1,3.94-1.64,29.77,29.77,0,0,1,5.41-1q3.31-.34,6.67-.45t8.22-.11v-4.41q0-9.1-9.1-9.1a25.6,25.6,0,0,0-5.45.61,31.42,31.42,0,0,0-4.21,1.15q-1.42.54-3.76,1.53a2.9,2.9,0,0,1-1.13.23,2.68,2.68,0,0,1-.86-.14,3,3,0,0,1-.77-.38,3.4,3.4,0,0,1-.65-.59,3.9,3.9,0,0,1-.81-1.51,3,3,0,0,1-.11-.81,2.64,2.64,0,0,1,.36-1.37,2.76,2.76,0,0,1,1.13-1,34.3,34.3,0,0,1,16.58-3.78q8.29,0,13.06,3.87t4.78,12.07v25.41a3.94,3.94,0,0,1-1.35,3.18,4.72,4.72,0,0,1-3.15,1.15,4.81,4.81,0,0,1-2.14-.47,4.11,4.11,0,0,1-1.62-1.44,4,4,0,0,1-.65-2.32v-3.33q-4,8.24-13.47,8.24Q1722.32,156.75,1717.91,153.37Zm21-6.62a14.62,14.62,0,0,0,3.74-10.32v-1.26q-4.32,0-7.21.11t-5.34.45a17.8,17.8,0,0,0-3.85.88,7.4,7.4,0,0,0-2.41,1.49,4.77,4.77,0,0,0-1.37,2.23,11.54,11.54,0,0,0-.36,3.09q0,3.78,2.21,5.59a9.12,9.12,0,0,0,5.95,1.8A11.46,11.46,0,0,0,1738.9,146.75Z"/><path d="M1771.06,153.1q-3.2-3.47-3.2-10.18V117.47h-5.23a3.41,3.41,0,0,1-2.48-.83,2.86,2.86,0,0,1-.86-2.14,2.82,2.82,0,0,1,.83-2.12,3.39,3.39,0,0,1,2.46-.81h5.27l1.22-12.48a4.5,4.5,0,0,1,1.46-2.84,4.29,4.29,0,0,1,3-1.13,3.23,3.23,0,0,1,3.42,3.56v12.88H1785a3.2,3.2,0,0,1,2.43.86,3,3,0,0,1,.81,2.16,2.79,2.79,0,0,1-.81,2.09,3.36,3.36,0,0,1-2.43.79H1777V141q0,4.32,1.22,6.4a4.24,4.24,0,0,0,4,2.07h.45l3.2-.18h.27a3.4,3.4,0,0,1,2.64,1.06,3.53,3.53,0,0,1,1,2.46,3.6,3.6,0,0,1-.23,1.31,2.93,2.93,0,0,1-.59,1,3,3,0,0,1-1,.65,8.26,8.26,0,0,1-1.19.43,9.55,9.55,0,0,1-1.46.25q-.88.09-1.6.11l-1.71,0h-2.16A11.24,11.24,0,0,1,1771.06,153.1Z"/><path d="M1799.26,99.79a5,5,0,0,1-1.58-3.85,5.08,5.08,0,0,1,1.58-3.87,5.79,5.79,0,0,1,4.14-1.49,5.58,5.58,0,0,1,4.05,1.49,5.16,5.16,0,0,1,1.53,3.87,5,5,0,0,1-1.55,3.85,5.7,5.7,0,0,1-4.08,1.46A5.78,5.78,0,0,1,1799.26,99.79Zm.86,55.07a4.3,4.3,0,0,1-1.31-3.38V115.67a4.22,4.22,0,0,1,1.37-3.33,4.7,4.7,0,0,1,3.22-1.22,4.56,4.56,0,0,1,3.15,1.22,4.26,4.26,0,0,1,1.35,3.33v35.81a4.22,4.22,0,0,1-1.37,3.33,4.7,4.7,0,0,1-3.22,1.22A4.62,4.62,0,0,1,1800.11,154.86Z"/><path d="M1830.84,154.88a19.43,19.43,0,0,1-7.21-5.07,22.68,22.68,0,0,1-4.28-7.34,26.08,26.08,0,0,1-1.49-8.87,26.41,26.41,0,0,1,1.49-8.94,22.45,22.45,0,0,1,4.3-7.37,19.48,19.48,0,0,1,7.21-5,25.17,25.17,0,0,1,9.84-1.85,23.65,23.65,0,0,1,12.41,3.15,20.06,20.06,0,0,1,7.84,8.36,25.87,25.87,0,0,1,2.59,11.69,26.14,26.14,0,0,1-1.49,8.85,22.62,22.62,0,0,1-4.28,7.37,19.45,19.45,0,0,1-7.21,5.07,27,27,0,0,1-19.73,0Zm20.09-8.85q3.65-4.5,3.65-12.43t-3.69-12.46a13.67,13.67,0,0,0-20.38,0q-3.67,4.55-3.67,12.48t3.69,12.43a12.4,12.4,0,0,0,10.18,4.55Q1847.28,150.54,1850.93,146Z"/><path d="M1874.87,154.88a4,4,0,0,1-1.33-3.18V115.4a3.81,3.81,0,0,1,1.35-3.13,5.19,5.19,0,0,1,6.37,0,3.68,3.68,0,0,1,1.33,3v3.2a12.65,12.65,0,0,1,5.65-6,18.69,18.69,0,0,1,9-2.07,19.24,19.24,0,0,1,6.37,1,15.09,15.09,0,0,1,5.18,3.06,13.49,13.49,0,0,1,3.54,5.45,22.4,22.4,0,0,1,1.26,7.82v24a3.92,3.92,0,0,1-1.37,3.18A4.87,4.87,0,0,1,1909,156a4.69,4.69,0,0,1-3.18-1.15,4,4,0,0,1-1.33-3.18V127.65q0-5.41-2.61-8.24a9.14,9.14,0,0,0-7.07-2.84,11.28,11.28,0,0,0-8.51,3.72q-3.51,3.72-3.69,10v21.4a3.94,3.94,0,0,1-1.35,3.18A4.78,4.78,0,0,1,1878,156,4.69,4.69,0,0,1,1874.87,154.88Z"/><path d="M1965.12,152.7a27.9,27.9,0,0,1-10.5-11.85,38.93,38.93,0,0,1-3.6-17,38.45,38.45,0,0,1,3.78-17.34,28.71,28.71,0,0,1,10.88-12A30.63,30.63,0,0,1,1982,90.18a34,34,0,0,1,16.35,4.14,4.54,4.54,0,0,1,1.8,1.55,3.61,3.61,0,0,1,.59,2,4.06,4.06,0,0,1-.54,2,4.27,4.27,0,0,1-1.46,1.55,3.6,3.6,0,0,1-2,.59,4.28,4.28,0,0,1-.74-.07,2.71,2.71,0,0,1-.74-.25l-1.4-.7a21.1,21.1,0,0,0-2.07-.92q-.86-.31-2.34-.79a18.43,18.43,0,0,0-3.29-.7,31,31,0,0,0-3.83-.23,20.68,20.68,0,0,0-9.1,1.91,16.84,16.84,0,0,0-6.44,5.34,24.69,24.69,0,0,0-3.74,8,41.1,41.1,0,0,0,0,20.2,23.91,23.91,0,0,0,3.78,8,16.75,16.75,0,0,0,6.58,5.27,22,22,0,0,0,9.33,1.87,21.56,21.56,0,0,0,5.29-.65,24.08,24.08,0,0,0,4.14-1.37q1.55-.72,3.9-2a3.71,3.71,0,0,1,1.8-.5,3.4,3.4,0,0,1,2.61,1.19,4,4,0,0,1,1.08,2.77,4.4,4.4,0,0,1-2.3,3.78,33.36,33.36,0,0,1-18.24,4.91A29.37,29.37,0,0,1,1965.12,152.7Z"/><path d="M2016.85,150.38q-6.28-6.28-6.28-17.1a25.64,25.64,0,0,1,1.46-8.69,23.1,23.1,0,0,1,4.17-7.27,19.15,19.15,0,0,1,6.87-5,24.31,24.31,0,0,1,18.42-.11,16,16,0,0,1,6.35,4.82,22.61,22.61,0,0,1,3.6,6.87,28.64,28.64,0,0,1,1.33,8.31,3.9,3.9,0,0,1-.72,2.43,2.55,2.55,0,0,1-2.16.95h-30.18q.18,7.48,4,11.13a14.27,14.27,0,0,0,10,3.74,16.32,16.32,0,0,0,6.76-1.37,34.74,34.74,0,0,0,6.26-3.72,3.91,3.91,0,0,1,.88-.47,2.55,2.55,0,0,1,2.3.27,3.07,3.07,0,0,1,1,1.15,3.22,3.22,0,0,1,.38,1.53,3.46,3.46,0,0,1-.34,1.49,3.72,3.72,0,0,1-1.06,1.31,24.56,24.56,0,0,1-16.85,6.17Q2023.14,156.66,2016.85,150.38ZM2044.94,130a17.05,17.05,0,0,0-3.42-9.66q-3-3.81-8.78-3.81a12.51,12.51,0,0,0-5.41,1.15,11,11,0,0,0-4,3.11,15.83,15.83,0,0,0-2.43,4.3,18.56,18.56,0,0,0-1.1,4.91Z"/><path d="M2064.42,154.88a4,4,0,0,1-1.33-3.18V115.4a3.81,3.81,0,0,1,1.35-3.13,5.19,5.19,0,0,1,6.37,0,3.68,3.68,0,0,1,1.33,3v3.2a12.65,12.65,0,0,1,5.65-6,18.69,18.69,0,0,1,9-2.07,19.24,19.24,0,0,1,6.37,1,15.09,15.09,0,0,1,5.18,3.06,13.49,13.49,0,0,1,3.54,5.45,22.4,22.4,0,0,1,1.26,7.82v24a3.92,3.92,0,0,1-1.37,3.18,4.87,4.87,0,0,1-3.22,1.15,4.69,4.69,0,0,1-3.18-1.15,4,4,0,0,1-1.33-3.18V127.65q0-5.41-2.61-8.24a9.14,9.14,0,0,0-7.07-2.84,11.28,11.28,0,0,0-8.51,3.72q-3.51,3.72-3.69,10v21.4a3.94,3.94,0,0,1-1.35,3.18,4.78,4.78,0,0,1-3.2,1.15A4.69,4.69,0,0,1,2064.42,154.88Z"/><path d="M2122.33,153.1q-3.2-3.47-3.2-10.18V117.47h-5.23a3.41,3.41,0,0,1-2.48-.83,2.86,2.86,0,0,1-.86-2.14,2.82,2.82,0,0,1,.83-2.12,3.39,3.39,0,0,1,2.46-.81h5.27l1.22-12.48a4.5,4.5,0,0,1,1.46-2.84,4.29,4.29,0,0,1,3-1.13,3.23,3.23,0,0,1,3.42,3.56v12.88h8.06a3.2,3.2,0,0,1,2.43.86,3,3,0,0,1,.81,2.16,2.79,2.79,0,0,1-.81,2.09,3.36,3.36,0,0,1-2.43.79h-8.06V141q0,4.32,1.22,6.4a4.24,4.24,0,0,0,4,2.07h.45l3.2-.18h.27a3.4,3.4,0,0,1,2.64,1.06,3.53,3.53,0,0,1,1,2.46,3.6,3.6,0,0,1-.23,1.31,2.93,2.93,0,0,1-.59,1,3,3,0,0,1-1,.65,8.26,8.26,0,0,1-1.19.43,9.55,9.55,0,0,1-1.46.25q-.88.09-1.6.11l-1.71,0H2131A11.24,11.24,0,0,1,2122.33,153.1Z"/><path d="M2153.34,150.38q-6.28-6.28-6.28-17.1a25.64,25.64,0,0,1,1.46-8.69,23.1,23.1,0,0,1,4.17-7.27,19.15,19.15,0,0,1,6.87-5,24.31,24.31,0,0,1,18.42-.11,16,16,0,0,1,6.35,4.82,22.61,22.61,0,0,1,3.6,6.87,28.64,28.64,0,0,1,1.33,8.31,3.9,3.9,0,0,1-.72,2.43,2.55,2.55,0,0,1-2.16.95H2156.2q.18,7.48,4,11.13a14.27,14.27,0,0,0,10,3.74A16.32,16.32,0,0,0,2177,149a34.74,34.74,0,0,0,6.26-3.72,3.91,3.91,0,0,1,.88-.47,2.55,2.55,0,0,1,2.3.27,3.07,3.07,0,0,1,1,1.15,3.22,3.22,0,0,1,.38,1.53,3.46,3.46,0,0,1-.34,1.49,3.72,3.72,0,0,1-1.06,1.31,24.56,24.56,0,0,1-16.85,6.17Q2159.63,156.66,2153.34,150.38ZM2181.43,130a17.05,17.05,0,0,0-3.42-9.66q-3-3.81-8.78-3.81a12.51,12.51,0,0,0-5.41,1.15,11,11,0,0,0-4,3.11,15.83,15.83,0,0,0-2.43,4.3,18.56,18.56,0,0,0-1.1,4.91Z"/><path d="M2201,154.93a3.92,3.92,0,0,1-1.31-3.18v-36.4a3.73,3.73,0,0,1,1.37-3.09,5,5,0,0,1,3.22-1.1,5.85,5.85,0,0,1,1.37.16,4.35,4.35,0,0,1,1.22.5,4.72,4.72,0,0,1,1,.79,3.28,3.28,0,0,1,.68,1.1,4,4,0,0,1,.25,1.42l-.09,5.54a13.44,13.44,0,0,1,4.57-7,12.21,12.21,0,0,1,8-2.84,3,3,0,0,1,2.52,1.17,4.45,4.45,0,0,1,.9,2.79,4.16,4.16,0,0,1-.81,2.57,2.7,2.7,0,0,1-2.3,1.08q-6,0-9.39,2.79t-3.4,8.51v22a3.83,3.83,0,0,1-1.4,3.15,5,5,0,0,1-3.24,1.13A4.72,4.72,0,0,1,2201,154.93Z"/><path class="cls-1" d="M326.28,136.35c-15.78-11-32.45-25.43-46-42-4.35-5.32-6.66-7.41-11.34-1.19a35.11,35.11,0,0,0-5.34,12.11c-2.87,11.35-.91,23.92,2.76,34.22,1.67,4.69,11.62,22.07,8.12,27.42s-15.68-2.11-19.06-4.06c-13.34-7.69-26.08-19.77-37.49-33A180.53,180.53,0,0,1,199.46,104c-5.21-8.78-8.24-33.91-15-27.26-9.51,9.34,4.72,70.19,14.84,94,3.55,8.37,8,22.12-2.4,18.54-7.81-2.69-16-8.9-22.8-15.27C160,161,142.48,144.19,130.48,126.7c-7.13-10.39-13.3-24.69-19.65-36.23-1.28-2.33-5.09-11.71-7.25-12.35s-3.29,5.14-3,8.12c2.23,28.14,3.15,43.3,11.64,66.94,2.28,6.34,11.48,24.31,9.43,32.5s-13.36-2.26-17-5.46c-24.22-21.49-43.2-42.44-64.83-69.5-3.31-4.14-12.74-18.2-17-15.72-3.54,2.06-7.17,17.91-7.91,22.92A54.26,54.26,0,0,0,19,148.32,126.48,126.48,0,0,0,25.7,160.9c1.71,2.8,5.75,6.15,6.7,9.81-.24-.92-7.39-4.75-8.86-6-3.18-2.67-6.33-5.43-9.48-8.23C7,150.22.5,142.29,0,128.41c-.39-11.3,3.52-23.45,5.79-33.9,2-9.19,4.25-17.21,9.59-22.78C23.72,63.08,27,67.1,34,76.77c7.51,10.3,14.12,21.75,21.13,32.85,12.69,20.1,40.92,46.91,41.55,43.33,2.14-12.08-2.33-14.69-4.51-26.85-2.56-14.29-3.61-22.07-3.57-37.45,0-11.24-1.08-60.94,13.34-48.32,7,6.11,11.1,24,15,34.36,4.61,12.23,9.34,19.12,15.13,30.06,11.35,21.42,45.5,61,47.13,54.73,2.15-8.29-4.42-24.39-5.68-33.09-1.66-11.36-4.25-25.58-3.86-37.21.54-16.15-.41-39.33,6.34-52.68,7.21-14.24,13.77,5.42,16.91,15,5.32,16.21,10.43,32.35,17.53,46.9A119.92,119.92,0,0,0,239,135.67c2.5,2.2,6,5.64,8.83,6.69,3.15,1.18,3.08,2,3.51-3,.38-4.46-1.33-9.54-1.81-13.93a71.26,71.26,0,0,1,.12-15.89c1.79-15.74,7.52-33.12,17-40.33,8.4-6.36,14.84,5.92,20.33,14.66,11.51,18.32,26.65,30.68,40.94,41.65,0,0,6.46,5.28,7.17,4.43,1.32-1.57-2.69-9.33-3.5-11.81-5.78-17.5,1.4-28,11-35.87,4.22-3.46,8.62-7.25,13.3-3.94,3,2.13,5.83,7,8.32,10.3,7.62,10.17,15.13,18.17,24.35,24.69,6,4.21,12,8.31,18,12.37,4.35,2.94,8.62,6.67,6.61-4-1.35-7.19-5.59-11.71-2-19.51,2.34-5.1,7.79-8.5,11-11.71,6-6,12.08-12,18.31-17.44,4.69-4.11,12-12.34,17.63-12.23,7.38.14,2.93,10.44.57,15.46-2.84,6-5.6,11.62-5.45,19.46.33,17.45,7.18,27.45,15.46,37.15,4,4.66,8.21,8.81,12.36,13.09.74.76,6.75,8.48,7.72,7.66,1.12-1-4.09-14.34-4.29-15.09a41.78,41.78,0,0,1-.85-19.87c3-14.32,12.41-25.28,19.34-34.73,8.54-11.67,17.42-22.69,26-34.38,3.85-5.27,7.55-10.77,11.3-16.21,2.3-3.34,5.56-10.09,8.82-11.26-.28.1-7.42,16.26-9,18.78-4.92,8.09-10,15.88-15.23,23.52C515.52,78.19,504,91.83,497,109.2c-8.2,20.59,0,39.3,8,56,3.94,8.21,8.09,16.13,11.85,24.56,2.22,5,9.4,17.08,8.88,23.59-3.47-1.41-7-9.46-9.75-13.08-3.23-4.3-6.6-8.34-9.85-12.61C501,181,495.7,174.6,490.31,168.38c-13.11-15.17-28.14-28.24-39.62-46.41-2.71-4.29-6.44-8.22-8-14-1.38-5-.42-12.73-1.89-17.21-1.6-4.87-4.87-.55-7.87,1.8-3.23,2.53-7,5.22-9.48,9.42-6.62,11.09-.16,21.66,4.82,30.64,1.3,2.35,15.44,21.16,13.74,22.89s-8.75-3.05-10.76-4.24c-4.15-2.45-8.41-4.72-12.43-7.66-5.51-4-11.11-7.7-16.63-11.7-9.59-6.95-19.25-13.56-28.38-22S350,79.1,340.55,100.44c-7.21,16.31,16.44,41,13.16,46.28-3.47,5.58-27.43-10.37-27.43-10.37"/><path d="M326.91,114.53c-8.84-7.71-16.24-16.77-19.7-20.37-1.87-2-4.28-2.43-6.15-.88a22.18,22.18,0,0,0-5,7.27,40.47,40.47,0,0,0-3.55,19.53,62.53,62.53,0,0,0,5.26,21.31c1.44,3.1,2.76,6.36,4.18,9.49s3,6.49,3.62,10.21c.54,3.32-1.41,3.83-3.28,4a19.09,19.09,0,0,1-7.1-.53,49.45,49.45,0,0,1-10.82-4.72c-1.23-.69-2.43-1.46-3.64-2.24-.31-.2-7.58-5.1-9.75-6.91-2.43-2-4.85-4.09-7.25-6.21-4.58-4-9.2-8.15-13.54-12.71A172,172,0,0,1,226.4,100c-2-3.41-4-6.88-5.85-10.44a85.47,85.47,0,0,0-5.86-9.67c-3.8,8.1-4.91,19.32-4.51,29.06A105.69,105.69,0,0,0,215.93,139,293.87,293.87,0,0,0,227,166.56a46.76,46.76,0,0,1,2.41,5.37c.42,1.27,1.37,5.71,0,7.66-1.64,2.34-6.35.91-8,.33-3.75-1.3-7.51-3.91-11-6.2S192.67,158.89,189,155.11s-16.13-17.67-17.34-19.25c-2.28-3-4.62-5.83-7-8.71A188.74,188.74,0,0,1,151.45,108c-4.16-6.69-8-13.74-12.1-20.55-1-1.63-1.94-3.26-3-4.8-.59-.87-2.51-4.44-3.32-4.37s-1.41,3.84-1.65,4.85a41.61,41.61,0,0,0-1,6.67,136.17,136.17,0,0,0-.07,16c.11,2.63,1.13,12.9,1.82,14.68,2.75,17,9,31.94,14.75,47q2.21,5.8,4.36,11.64c1.31,3.53,2.33,6.24,2.49,10.42.06,1.67-3,4.52-4.58,4.26-2.64-.44-6.68-3.2-9-4.87-5.94-4.29-11.34-10.23-16.88-15.51.14-.42-10.18-11.22-11.19-12.34C108.27,156.82,96,143,95,141.83c-2.21-2.63-4.51-5.17-6.63-8-3.8-5-7.95-9.45-11.73-14.52C69.06,109.17,61.91,98,53.35,89.61c-.68-.66-1.28-1.57-2.1-.91s-1.76,3.64-2.33,4.84a55.91,55.91,0,0,0-3.75,10.31c-1.81,7.09-1.86,14.58-1.83,22.06.06,14.42,6.57,28,12.23,39.06,1.52,3,3.11,5.87,4.68,8.78q1.15,2.13,2.34,4.2a15.34,15.34,0,0,1,1.18,2c.45,1.17.58.9-.25.85-2.23-.14-4.68-2.5-6.54-4.09-2.45-2.1-4.87-4.33-7.19-6.73-1.84-1.91-3.59-4-5.35-6.07A52.75,52.75,0,0,1,38.8,157a75.68,75.68,0,0,1-7.69-18.57,68.33,68.33,0,0,1-2.68-21.62c.16-3.22.59-6.48.88-9.69.36-4,1.2-10.48,1.8-14.43a136.38,136.38,0,0,1,4.22-20.28c.9-2.87,6.87-21.2,10.09-21.84,4.09-.8,10.18,8.32,10.78,9.29,1,1.57,1.94,3.13,2.9,4.71,3.82,6.25,7.06,13.22,10.68,19.71s7.15,12.88,10.89,19.07c2,3.36,4.2,6.54,6.36,9.7,1.07,1.57,2.15,3.12,3.24,4.66.83,1.18,5.57,7.53,6.88,9.22,1.6,2.06,3.21,4.13,4.88,6.06,3,3.54,12.17,14.06,12.8,14.75,1.47,1.61,10.8,10.56,14.13,13a19.82,19.82,0,0,0-.75-6.09q-1.06-3.71-2.08-7.43c-1.27-4.64-2.46-9.34-3.65-14a174.27,174.27,0,0,1-4.76-29.3A274.87,274.87,0,0,1,117,74c.32-9.87,1.24-20,3.68-29.26.37-1.42,1.78-10,7-10.54,3.76-.39,7.8,5.35,8.87,7.93q5.11,12.32,10.11,24.75c3.41,8.48,6.86,17.2,10.81,25.17a240.48,240.48,0,0,0,13.23,23,164.22,164.22,0,0,0,16.61,21.49c5.66,6.28,11.56,12.45,18.22,16.17.65-5-1.82-10.7-3-15.27a151.27,151.27,0,0,1-3.21-16.76,174.34,174.34,0,0,1-1.05-34.92,203.89,203.89,0,0,1,4.43-32.4c.56-2.44,3.7-16.86,9.57-16.14,5.69.69,11.77,21.74,13.54,26.69,1.85,5.18,3.49,10.72,5.62,15.66,3.88,9,7.59,18.11,12.41,26.18a121.2,121.2,0,0,0,16.51,21.07c3.05,3.25,6.31,6,9.52,8.83,1.56,1.37,8.52,6.17,10.36,6.9,1.31.52,1.32-.16,1.45-2a22,22,0,0,0-.14-3.92c-.28-2.47-.69-4.93-1.15-7.34a57.87,57.87,0,0,1-.72-16.43A81.75,81.75,0,0,1,283,96.37c.64-2.06,1.15-4.32,2-6.26,1-2.53,2.36-4.9,3.58-7.25,2.25-4.31,9.1-12.86,14.08-12.13,5.54.81,12.49,11.91,15.76,15.39,3.69,3.92,15.84,17.91,19.3,21.32,9.5,9.34,39.12,33.66,32.41,22.75-1.4-2.28-5.64-7.59-7.29-13-1.59-5.23-2.07-12.23-.3-17.65a36.17,36.17,0,0,1,6.71-12c3.06-3.28,3-3.51,6.3-6,3.76-2.86,6.58-3.64,10.15-1.31,2.71,1.76,14.14,15.88,16.05,18.23,2.63,3.23,22.34,24.63,28.39,30.21,2.33,2.15,15.53,14.12,20.24,16.29,1.36.63-.54-3.65-1.43-5.09-2.65-4.26-7.9-14.46-8.67-16.91-1.09-3.47-2.27-8.57-1.78-12.39,1-7.85,6.09-12.53,10.32-16.44A295.15,295.15,0,0,1,479,69.33a38.07,38.07,0,0,1,9.4-5.09c3.2-1.16,5.74,4.57,3.69,8.44s-4.15,8-6.12,12.21c-3.73,7.91-6.65,16.35-5.18,26.29,1.45,9.76,6.33,17.67,10.71,24.84,4.65,7.61,9.73,14.38,14.89,21.21.89,1.18,7.46,10.81,8.15,10.11s-.7-5.35-.91-6.21c-.59-2.41-1.29-4.71-2-7-2.89-9-4.41-19.31-2.92-29.15s5.49-19.09,9.66-26.76c4.62-8.51,9.49-16.64,14.51-24.65,9.57-15.28,19.47-30,28.74-45.72,4.56-7.72,8.89-15.84,13.59-23.37.8-1.28,2.35-3.9,3.5-4.39.64-.27.49.37.29,1.25a26.69,26.69,0,0,1-1.51,3.94c-1.75,4.33-3.41,8.86-5.42,12.93-8.25,16.71-17.3,32.76-26.46,48.38-4.66,7.94-9.15,16.15-13.44,24.54-4,7.79-8.35,16.34-10.64,25.57a74.64,74.64,0,0,0-1.2,29.57c1.55,9.9,5.15,19.2,8.44,28,3.43,9.23,7.36,18,11,27.09q5.58,13.82,10.43,28.24c.79,2.32,1.61,4.63,2.31,7,.62,2.12,1.5,4.41,1.35,6.71-1.79-.87-3-4-4.2-6.12q-2.16-3.78-4.18-7.72c-2.72-5.32-5.44-10.61-8.31-15.76-2.7-4.85-5.46-9.62-8.33-14.25-1.52-2.46-3.07-4.89-4.61-7.31-1.1-1.73-5.91-8.42-6.84-9.68-1.26-1.71-2.49-3.47-3.74-5.22-2.32-3.26-4.58-6.64-7-9.82-5.06-6.78-10.47-13-15.7-19.52a179,179,0,0,1-14.87-20.6c-4.17-7-7.91-14.62-8.23-24.24-.17-5.08.84-9.51,1.29-14.47.11-1.21.39-1.81-.48-1.72-.65.07-1.72,1.16-2.31,1.59-1.52,1.12-3,2.33-4.48,3.58-5.26,4.48-10.9,9.12-14.07,17.08s2.46,15.8,6,22.21c4.23,7.7,10.55,15.54,13.85,22.44,1,2.13,3.26,6.92,3.68,7.6,5.39,8.78-11.19-.48-15.07-2.52A127,127,0,0,1,439.84,149c-13.4-9-31.91-28.81-36.75-34.15-3.83-4.22-13.71-14.46-15.34-16.41A22.58,22.58,0,0,0,382.92,94c-1.4-.95-3.5-1.77-5.42-.69-2.11,1.19-3,2.52-4.7,4.71-6.57,8.4-.88,17.69,4.34,26.13,1.52,2.47,3.27,4.78,6.27,9.89,2.64,4.5,3.42,8.3,2.63,10.89-.49,1.6-4.53,1.47-5.69,1.4-12.54-.77-22.53-8.51-27.64-11.53-12.37-7.3-19.56-14.78-25.8-20.23"/></svg>