<?xml version="1.0" encoding="UTF-8" standalone="no"?>
<svg
   xmlns:dc="http://purl.org/dc/elements/1.1/"
   xmlns:cc="http://creativecommons.org/ns#"
   xmlns:rdf="http://www.w3.org/1999/02/22-rdf-syntax-ns#"
   xmlns:svg="http://www.w3.org/2000/svg"
   xmlns="http://www.w3.org/2000/svg"
   xmlns:sodipodi="http://sodipodi.sourceforge.net/DTD/sodipodi-0.dtd"
   xmlns:inkscape="http://www.inkscape.org/namespaces/inkscape"
   width="151.89551mm"
   height="25.640524mm"
   viewBox="0 0 151.89551 25.640524"
   version="1.1"
   id="svg8"
   inkscape:version="1.0.2-2 (e86c870879, 2021-01-15)"
   sodipodi:docname="wellcome_logo_inverted.svg">
  <defs
     id="defs2" />
  <sodipodi:namedview
     id="base"
     pagecolor="#ffffff"
     bordercolor="#666666"
     borderopacity="1.0"
     inkscape:pageopacity="0.0"
     inkscape:pageshadow="2"
     inkscape:zoom="1.979899"
     inkscape:cx="356.36119"
     inkscape:cy="178.93872"
     inkscape:document-units="mm"
     inkscape:current-layer="g37"
     inkscape:document-rotation="0"
     showgrid="false"
     inkscape:window-width="3840"
     inkscape:window-height="2050"
     inkscape:window-x="-12"
     inkscape:window-y="-12"
     inkscape:window-maximized="1" />
  <metadata
     id="metadata5">
    <rdf:RDF>
      <cc:Work
         rdf:about="">
        <dc:format>image/svg+xml</dc:format>
        <dc:type
           rdf:resource="http://purl.org/dc/dcmitype/StillImage" />
        <dc:title />
      </cc:Work>
    </rdf:RDF>
  </metadata>
  <g
     inkscape:label="Layer 1"
     inkscape:groupmode="layer"
     id="layer1"
     transform="translate(-21.524427,-58.276732)">
    <g
       id="g37"
       transform="matrix(0.26458333,0,0,0.26458333,17.554058,39.347738)">
      <path
         style="fill:#000000;stroke-width:0.252538"
         d="m 156.80628,168.25095 c -15.7723,-1.63312 -27.4007,-10.13277 -31.78967,-23.23629 -1.15544,-3.44965 -1.71592,-6.88927 -1.88853,-11.58982 l -0.16191,-4.40921 -5.96251,18.80389 -5.96252,18.80388 -13.407309,0.0653 -13.4073,0.0653 -0.22519,-0.82295 c -0.12386,-0.45263 -2.36442,-9.97115 -4.97903,-21.15228 -2.61461,-11.18112 -4.84666,-20.43538 -4.96011,-20.56502 -0.11345,-0.12964 -0.26812,-0.17386 -0.3437,-0.0983 -0.0756,0.0756 -2.44328,9.67077 -5.26154,21.32264 l -5.12411,21.18521 -13.41895,0.0653 -13.41895,0.0653 -1.25726,-3.97968 c -3.02455,-9.57379 -20.231572,-64.901325 -20.231572,-65.052695 0,-0.0921 6.072198,-0.16748 13.493772,-0.16748 12.63494,0 13.50178,0.0281 13.61955,0.44194 0.0692,0.24307 2.36496,9.817415 5.10175,21.276335 2.73678,11.45892 5.07244,20.94046 5.19033,21.0701 0.1179,0.12964 0.27297,0.17709 0.34459,0.10547 0.0716,-0.0716 2.09895,-9.72364 4.50514,-21.44891 l 4.37491,-21.318665 12.26228,-0.0655 12.26227,-0.0655 0.25986,1.07567 c 0.14293,0.59162 2.22703,10.255835 4.63135,21.476035 3.54865,16.56041 4.44323,20.38655 4.7526,20.32697 0.28911,-0.0557 1.5367,-5.23922 5.168339,-21.47365 l 4.78723,-21.400255 h 13.61769 c 10.78993,0 13.59271,0.0656 13.49743,0.31567 -0.51842,1.36088 -4.72603,14.926765 -4.65251,15.000285 0.0518,0.0518 0.43277,-0.44678 0.84657,-1.10801 4.67281,-7.46702 12.82874,-12.922445 22.55998,-15.090135 2.56413,-0.57118 11.1408,-0.79988 14.67286,-0.39127 13.50798,1.56271 22.52583,7.253395 27.62323,17.431545 1.10047,2.19734 2.70003,6.51044 3.23278,8.71692 0.0671,0.27779 0.13513,-11.05802 0.15124,-25.190675 l 0.0293,-25.69576 h 13.00572 13.00571 v 47.477165 47.47717 h -13.00571 -13.00572 v -14.2684 -14.26841 h -24.62247 -24.62246 v 0.71722 c 0,0.39447 0.22751,1.61612 0.50559,2.71479 1.70649,6.74225 6.12531,10.20505 13.02247,10.20505 4.4452,0 7.82172,-1.18868 10.1637,-3.57806 l 1.18324,-1.20719 12.0587,-0.006 c 8.62307,-0.005 12.05869,0.0729 12.05869,0.27197 0,0.59194 -2.01132,4.53001 -3.28649,6.43481 -1.74271,2.60316 -5.9026,6.74117 -8.45653,8.41204 -4.324,2.8289 -9.72548,4.87717 -15.40483,5.8416 -3.52605,0.59878 -9.79615,0.83029 -13.13198,0.48489 z m 16.72776,-45.37978 c -0.41449,-4.41997 -3.56876,-8.3787 -7.70143,-9.66563 -1.95448,-0.60863 -5.48659,-0.71516 -7.84214,-0.23653 -3.43309,0.69759 -6.45388,2.92578 -8.04177,5.93177 -0.85149,1.61194 -1.60245,3.87869 -1.60245,4.83697 v 0.58551 h 12.66199 12.66198 z"
         id="path177" />
      <path
         style="fill:#ffffff;stroke-width:0.252538"
         d="m 156.80628,168.25597 c -15.77379,-1.59845 -27.3864,-10.12005 -31.83012,-23.35767 -1.1251,-3.3516 -1.66583,-6.71119 -1.84455,-11.46026 l -0.16544,-4.39601 -5.95995,18.79068 -5.95995,18.79069 -13.429429,0.0653 c -10.61703,0.0517 -13.45081,-0.001 -13.53156,-0.25254 -0.0562,-0.17484 -2.29065,-9.66483 -4.96548,-21.08887 -2.67484,-11.42405 -4.94918,-20.90988 -5.05409,-21.07963 -0.10491,-0.16974 -0.25528,-0.24409 -0.33415,-0.16522 -0.0789,0.0789 -2.45071,9.67835 -5.27074,21.33216 l -5.12733,21.18875 -13.41825,0.0653 -13.41825,0.0653 -0.74668,-2.33818 c -1.83701,-5.75252 -20.744192,-66.537025 -20.744192,-66.690285 0,-0.0943 6.072198,-0.17139 13.493772,-0.17139 12.63465,0 13.50183,0.0281 13.62029,0.44194 0.0696,0.24307 2.36675,9.817415 5.10481,21.276335 2.73806,11.45892 5.07338,20.94046 5.18959,21.0701 0.11622,0.12964 0.26827,0.17874 0.33789,0.10911 0.0696,-0.0696 2.09555,-9.72163 4.50207,-21.4489 l 4.37548,-21.322315 12.26795,-0.0655 12.26795,-0.0655 0.16264,0.64801 c 0.0894,0.35641 2.09259,9.647725 4.45141,20.647375 4.32219,20.15521 4.66668,21.64086 5.01796,21.64086 0.35165,0 0.46677,-0.49155 7.998859,-34.15578 l 1.96349,-8.775695 h 13.60759 13.60759 l -0.18244,0.56821 c -1.40209,4.366855 -4.64982,14.691375 -4.64982,14.781765 0,0.0657 0.71027,-0.88837 1.57837,-2.12016 5.05569,-7.17377 12.59812,-12.032765 21.90768,-14.113405 2.90365,-0.64895 11.61067,-0.79888 15.65736,-0.26961 15.16836,1.98389 24.5862,9.465685 28.94879,22.997745 l 0.97698,3.03046 0.0643,-25.443215 0.0643,-25.44322 h 13.0045 13.00451 v 47.477165 47.47717 h -13.00571 -13.00572 v -14.2684 -14.26841 h -24.65724 -24.65723 l 0.16607,1.413 c 0.46787,3.98088 2.75837,8.14118 5.51257,10.01267 2.24677,1.52669 3.91238,2.01891 7.27034,2.14853 4.71214,0.18191 8.27097,-0.97319 10.74867,-3.48871 l 1.22791,-1.24665 h 12.06819 c 8.62606,0 12.06818,0.0794 12.06818,0.27846 0,0.59193 -2.01132,4.53 -3.28649,6.4348 -1.74271,2.60317 -5.9026,6.74118 -8.45653,8.41204 -4.324,2.8289 -9.72548,4.87718 -15.40483,5.84161 -3.51127,0.59626 -9.77607,0.82998 -13.13198,0.4899 z m 16.71024,-45.42043 c -0.47021,-4.49876 -3.59417,-8.35151 -7.8443,-9.6743 -1.78331,-0.55503 -5.53373,-0.64481 -7.73573,-0.1852 -3.40501,0.71072 -6.4115,2.94071 -7.98779,5.92474 -0.85149,1.61194 -1.60245,3.87869 -1.60245,4.83697 v 0.58551 h 12.66289 12.66288 z"
         id="path179" />
      <path
         style="fill:#ffffff;stroke-width:0.252538"
         d="m 357.52396,168.26676 c -4.99077,-0.52782 -9.92542,-1.80706 -13.62679,-3.53257 -7.35011,-3.42648 -13.15433,-9.4573 -16.15352,-16.78417 -0.6446,-1.57474 -0.86537,-1.90952 -1.00348,-1.52175 -1.76887,4.9665 -4.41395,9.04037 -8.14014,12.53723 -4.56502,4.28405 -10.07922,7.03288 -17.21567,8.58202 -2.33819,0.50755 -3.3532,0.5756 -8.58629,0.5756 -5.18278,0 -6.25792,-0.0707 -8.48631,-0.55773 -9.90841,-2.16572 -17.98656,-7.38905 -22.97136,-14.85326 -1.74449,-2.61219 -3.6947,-6.70529 -4.50187,-9.44851 l -0.63161,-2.14657 -0.0134,12.69004 -0.0134,12.69004 H 243.04806 229.91607 V 119.01996 71.542795 h 13.13199 13.13198 l 0.004,25.82203 0.004,25.822015 0.98902,-2.93905 c 1.81218,-5.3852 4.45168,-9.70726 8.21504,-13.4517 7.26025,-7.223765 16.30656,-10.772115 27.45825,-10.770295 16.70471,0.003 29.01993,7.441035 33.25641,20.086645 l 0.76032,2.26952 0.41237,-1.00682 c 3.59782,-8.78435 9.75086,-15.02938 18.14037,-18.411555 2.63429,-1.062 7.55422,-2.31068 10.50673,-2.66661 3.10808,-0.37469 10.56278,-0.30975 13.57334,0.11824 15.72247,2.23514 26.42747,11.945955 29.60538,26.855895 l 0.46647,2.18857 0.0253,-13.82646 0.0253,-13.826455 h 12.50064 12.50064 v 4.545675 c 0,2.67399 0.0979,4.54569 0.23777,4.54569 0.13078,0 0.74374,-0.65752 1.36212,-1.46116 3.97702,-5.16844 9.31783,-8.174255 16.27977,-9.162295 3.07919,-0.437 9.04659,-0.17828 11.28849,0.48941 4.7028,1.40061 8.82858,4.251165 11.20068,7.738715 0.75436,1.10909 1.45036,2.01652 1.54667,2.01652 0.0963,0 0.76225,-0.70553 1.47988,-1.56784 3.28117,-3.94274 7.98226,-6.703845 13.93077,-8.182035 2.14852,-0.5339 2.96624,-0.59606 7.82868,-0.5951 5.92243,10e-4 7.02478,0.16704 10.7928,1.62411 6.43455,2.488165 10.88937,8.050235 12.55804,15.679325 0.25749,1.1772 0.46788,3.74968 0.56261,6.87912 l 0.15132,4.99874 0.69306,-2.7259 c 3.27194,-12.86861 12.74338,-22.29269 25.68717,-25.558735 3.10309,-0.78299 5.68946,-1.04812 10.18365,-1.04395 15.60565,0.0145 26.66573,5.400615 32.85653,16.000715 3.22847,5.52792 5.2093,13.38497 5.66241,22.46015 l 0.17337,3.4724 h -25.42045 -25.41978 l 0.15548,1.07329 c 0.94844,6.54675 4.29565,10.79973 9.5837,12.17709 1.90426,0.496 6.06347,0.4952 8.17095,-0.002 2.22001,-0.5233 4.90126,-1.98647 6.06695,-3.31076 l 0.96755,-1.0992 h 12.15314 c 6.68421,0 12.15312,0.0548 12.15312,0.12169 0,0.48822 -2.27365,4.87194 -3.3929,6.54171 -4.76484,7.10841 -12.65206,12.06718 -22.32447,14.03559 -8.67615,1.76565 -18.31818,1.05838 -26.43175,-1.93883 -10.91707,-4.03285 -18.72889,-12.99917 -21.18502,-24.316 -0.3236,-1.49095 -0.35861,-0.39657 -0.38164,11.93243 l -0.0254,13.57386 h -13.12262 -13.12258 l -0.0725,-21.52888 -0.0725,-21.52887 -0.60627,-1.7123 c -0.7637,-2.157 -2.10046,-3.70901 -3.86676,-4.48943 -1.11671,-0.49339 -1.7695,-0.59138 -3.987,-0.59849 -2.23266,-0.007 -2.85545,0.083 -3.94146,0.57042 -1.58098,0.70959 -2.88228,2.01441 -3.75703,3.76721 -1.36814,2.74143 -1.38374,3.02366 -1.38849,25.12788 l -0.004,20.39246 h -13.1213 -13.12131 l -0.0771,-21.40261 c -0.077,-21.36126 -0.0782,-21.40582 -0.63931,-23.0656 -1.07242,-3.17236 -2.75596,-4.70459 -5.82039,-5.2973 -5.43588,-1.05138 -9.37795,1.45604 -10.83097,6.88921 -0.37695,1.40948 -0.43464,3.8877 -0.51752,22.23131 l -0.0933,20.64499 H 412.61429 399.6221 l -0.0213,-13.95273 -0.0213,-13.95273 -0.48403,2.14644 c -1.58405,7.02453 -4.61357,12.72999 -9.18925,17.30602 -6.37528,6.37577 -15.32226,9.79428 -26.39709,10.08596 -2.15289,0.0567 -4.84604,0.005 -5.98479,-0.11587 z m -61.91074,-19.2858 c 3.70522,-0.87211 6.49778,-3.76896 7.52215,-7.80307 l 0.46433,-1.82861 10.79648,-0.0659 10.79647,-0.0659 -0.16017,-1.32309 c -0.5257,-4.34242 -0.44039,-9.02604 0.24217,-13.29452 l 0.16539,-1.03428 H 314.18772 302.9354 l -0.29997,-1.4521 c -1.08556,-5.25502 -5.64143,-8.09036 -11.52899,-7.17504 -3.82348,0.59443 -6.22355,2.34322 -7.78279,5.67086 -1.1788,2.51575 -1.66731,5.16915 -1.82353,9.90473 -0.37443,11.35077 2.2646,17.06844 8.52003,18.45928 1.85723,0.41295 3.85932,0.41566 5.59307,0.008 z m 70.18567,-0.0523 c 3.56796,-1.02971 5.95747,-3.94166 7.14462,-8.70669 0.66566,-2.67188 0.96266,-7.59221 0.68016,-11.26805 -0.55529,-7.22534 -2.58511,-11.32537 -6.51984,-13.16944 -1.33971,-0.62788 -1.6955,-0.67887 -4.73682,-0.67887 -3.20708,0 -3.32995,0.0205 -4.97433,0.83003 -3.598,1.77129 -5.5551,5.38615 -6.25017,11.54434 -0.47875,4.24178 -0.20536,9.79582 0.64484,13.10002 1.15947,4.5061 3.89449,7.65301 7.36119,8.46975 1.58547,0.37354 5.16214,0.30841 6.65035,-0.12109 z m 197.96644,-25.55243 c -0.0217,-3.31984 -2.12084,-7.02579 -5.04114,-8.89975 -1.94376,-1.24731 -4.03301,-1.80274 -6.77421,-1.80095 -6.76388,0.004 -10.9618,2.84308 -12.79737,8.65369 -1.06425,3.36897 -2.56599,2.99403 11.99197,2.99403 h 12.62691 l -0.006,-0.94702 z"
         id="path181" />
    </g>
  </g>
</svg>
